<svg width="161" height="240" viewBox="0 0 161 240" fill="none" xmlns="http://www.w3.org/2000/svg">
<path d="M77.3771 87.7674L68.3718 102.703L49.7023 128.621L59.5862 132.135L81.3306 109.292C81.3306 109.292 83.3073 103.362 82.4288 98.3101C81.5502 93.2584 77.3771 87.7674 77.3771 87.7674Z" fill="white"/>
<path d="M77.3771 87.7674L68.3718 102.703L49.7023 128.621L59.5862 132.135L81.3306 109.292C81.3306 109.292 83.3073 103.362 82.4288 98.3101C81.5502 93.2584 77.3771 87.7674 77.3771 87.7674Z" stroke="#393939" stroke-miterlimit="10" stroke-linecap="round" stroke-linejoin="round"/>
<path d="M69.4702 103.801C69.4702 103.801 73.863 109.731 78.2558 110.829" stroke="#393939" stroke-miterlimit="10" stroke-linecap="round" stroke-linejoin="round"/>
<path d="M72.7362 10.807C72.7362 10.807 69.4899 17.0377 69.4899 19.4257C69.4899 21.8127 70.5011 26.7669 69.5066 28.1594C68.5112 29.552 66.7215 31.541 66.921 32.337C67.1186 33.133 70.5011 35.122 70.5011 35.122C70.5011 35.122 71.9402 46.2165 73.9292 47.0125C75.9183 47.8085 79.4993 48.405 79.4993 48.405C79.4993 48.405 85.4024 49.2766 87.2579 54.9696C88.14 57.6783 87.2579 65.1153 85.2688 68.0989C83.2789 71.0834 75.1232 82.4221 74.5258 89.7836C73.9292 97.1441 79.4993 102.315 80.2953 103.31C81.0913 104.305 78.7034 119.424 79.8973 125.989C81.0913 132.553 81.8864 135.338 81.8864 135.338L123.861 133.15C123.861 133.15 118.888 128.375 117.694 117.633C116.501 106.891 118.49 95.7507 118.49 85.2071C118.49 74.6644 115.705 65.1153 112.125 59.7438C108.544 54.3731 104.963 50.7921 103.57 44.824C102.178 38.8559 104.566 38.2594 104.566 38.2594C104.566 38.2594 112.125 32.4907 108.344 19.7586C104.566 7.02737 88.0539 1.05931 72.7362 10.807Z" fill="white"/>
<path d="M72.7362 10.807C72.7362 10.807 69.4899 17.0377 69.4899 19.4257C69.4899 21.8127 70.5011 26.7669 69.5066 28.1594C68.5112 29.552 66.7215 31.541 66.921 32.337C67.1186 33.133 70.5011 35.122 70.5011 35.122C70.5011 35.122 71.9402 46.2165 73.9292 47.0125C75.9183 47.8085 79.4993 48.405 79.4993 48.405C79.4993 48.405 85.4024 49.2766 87.2579 54.9696C88.14 57.6783 87.2579 65.1153 85.2688 68.0989C83.2789 71.0834 75.1232 82.4221 74.5258 89.7836C73.9292 97.1441 79.4993 102.315 80.2953 103.31C81.0913 104.305 78.7034 119.424 79.8973 125.989C81.0913 132.553 81.8864 135.338 81.8864 135.338L123.861 133.15C123.861 133.15 118.888 128.375 117.694 117.633C116.501 106.891 118.49 95.7507 118.49 85.2071C118.49 74.6644 115.705 65.1153 112.125 59.7438C108.544 54.3731 104.963 50.7921 103.57 44.824C102.178 38.8559 104.566 38.2594 104.566 38.2594C104.566 38.2594 112.125 32.4907 108.344 19.7586C104.566 7.02738 88.0539 1.05931 72.7362 10.807Z" stroke="#393939" stroke-miterlimit="10" stroke-linecap="round" stroke-linejoin="round"/>
<path d="M92.0321 27.3174C92.0321 27.3174 89.8445 25.7255 82.0859 19.9568C74.3273 14.1882 69.3546 9.81118 70.9457 6.42959C72.5377 3.04713 89.645 -1.12957 100.388 2.25202C111.129 5.63361 113.914 11.8002 114.71 19.5588C115.506 27.3174 118.454 52.7653 115.868 55.1523C113.281 57.5394 94.0149 57.9374 90.433 55.1523C86.8528 52.3673 95.2151 29.7045 95.2151 29.7045L92.0321 27.3174Z" fill="#393939"/>
<path d="M92.0319 27.3174C92.0319 27.3174 89.8443 25.7254 82.0857 19.9568C74.3271 14.1882 69.3544 9.81116 70.9455 6.42958C72.5375 3.04711 89.6448 -1.12957 100.388 2.25201C111.129 5.6336 113.914 11.8002 114.71 19.5588C115.506 27.3174 110.732 38.259 108.146 40.6461C105.559 43.0331 102.775 41.8391 99.193 39.0541C95.6129 36.2691 95.2149 29.7044 95.2149 29.7044L92.0319 27.3174Z" stroke="#393939" stroke-miterlimit="10" stroke-linecap="round" stroke-linejoin="round"/>
<path d="M89.446 28.909C89.446 28.909 92.0316 20.5538 95.812 22.9409C99.5916 25.328 97.0051 33.8825 95.6135 34.6776C94.2209 35.4736 91.833 33.6831 91.833 33.6831C91.833 33.6831 92.7581 42.9695 88.2775 44.333" fill="white"/>
<path d="M89.446 28.909C89.446 28.909 92.0316 20.5538 95.812 22.9409C99.5916 25.328 97.0051 33.8825 95.6135 34.6776C94.2209 35.4736 91.833 33.6831 91.833 33.6831C91.833 33.6831 92.7581 42.9695 88.2775 44.333" stroke="#393939" stroke-miterlimit="10" stroke-linecap="round" stroke-linejoin="round"/>
<path d="M72.2916 26.9644C72.2916 27.9528 72.737 28.7549 73.2861 28.7549C73.8352 28.7549 74.2806 27.9528 74.2806 26.9644C74.2806 25.976 73.8352 25.1739 73.2861 25.1739C72.737 25.1739 72.2916 25.976 72.2916 26.9644Z" fill="#393939"/>
<path d="M75.475 23.1855C75.475 23.1855 74.281 21.1956 71.496 22.5881L75.475 23.1855Z" fill="white"/>
<path d="M75.475 23.1855C75.475 23.1855 74.281 21.1956 71.496 22.5881" stroke="#393939" stroke-miterlimit="10" stroke-linecap="round" stroke-linejoin="round"/>
<path d="M77.2645 36.7127C77.2645 36.7127 75.872 38.3047 71.6944 38.3047L77.2645 36.7127Z" fill="white"/>
<path d="M77.2645 36.7127C77.2645 36.7127 75.872 38.3047 71.6944 38.3047" stroke="#393939" stroke-miterlimit="10" stroke-linecap="round" stroke-linejoin="round"/>
<path d="M74.5257 89.783C74.828 86.057 77.0683 81.3146 79.4633 77.1493C80.0071 77.5139 80.6282 77.6 81.3302 77.2266C84.6248 75.4695 90.9944 61.6321 99.78 59.6554C106.774 58.081 113.206 64.2977 115.541 66.9009C117.326 72.0211 118.49 78.403 118.49 85.2075C118.49 92.4749 117.545 100.027 117.349 107.536H80.326C80.4833 105.241 80.5386 103.614 80.2944 103.309C79.4993 102.316 73.9292 97.1427 74.5257 89.783Z" fill="black"/>
<path d="M74.5257 89.783C74.828 86.057 77.0683 81.3146 79.4633 77.1493C80.0071 77.5139 80.6282 77.6 81.3302 77.2266C84.6248 75.4695 90.9944 61.6321 99.78 59.6554C106.774 58.081 113.206 64.2977 115.541 66.9009C117.326 72.0211 118.49 78.403 118.49 85.2075C118.49 92.4749 117.545 100.027 117.349 107.536H80.326C80.4833 105.241 80.5386 103.614 80.2944 103.309C79.4993 102.316 73.9292 97.1427 74.5257 89.783Z" stroke="#393939" stroke-miterlimit="10" stroke-linecap="round" stroke-linejoin="round"/>
<path d="M85.943 106.218C85.943 106.218 87.2608 86.0112 89.4573 77.4452C91.6537 68.8793 97.1447 63.1686 101.977 62.2901C106.809 61.4115 112.08 68.44 112.52 75.4685C112.959 82.497 110.945 87.1516 110.124 92.0745C108.148 95.1495 108.346 98.7504 108.346 98.7504C108.346 98.7504 101.537 119.836 99.5607 120.714C97.584 121.593 62.4415 134.552 60.6843 134.991C58.9272 135.43 55.6326 135.87 53.8755 135.43C52.1184 134.991 43.9916 135.211 42.0149 135.211C40.0381 135.211 37.6221 135.87 36.9632 134.771C36.3042 133.673 40.697 128.182 43.772 127.963C46.847 127.743 55.8522 129.5 57.6094 129.5C59.3665 129.5 78.0359 111.709 80.2323 109.952C82.4288 108.195 85.943 106.218 85.943 106.218Z" fill="white"/>
<path d="M85.9432 106.218C85.9432 106.218 87.261 86.0112 89.4574 77.4452C91.6538 68.8793 97.1449 63.1686 101.977 62.2901C106.809 61.4115 112.08 68.44 112.52 75.4685C112.959 82.497 111.765 85.9132 110.125 92.0745C108.347 98.7504 108.347 98.7504 108.347 98.7504C108.347 98.7504 101.538 119.836 99.5609 120.714C97.5841 121.593 62.4416 134.552 60.6845 134.991C58.9274 135.43 55.6328 135.87 53.8757 135.43C52.1185 134.991 43.9918 135.211 42.0151 135.211C40.0383 135.211 37.6223 135.87 36.9633 134.771C36.3044 133.673 40.6972 128.182 43.7722 127.963C46.8472 127.743 55.8524 129.5 57.6096 129.5C59.3667 129.5 78.0361 111.709 80.2325 109.952C82.4289 108.195 85.9432 106.218 85.9432 106.218Z" stroke="#393939" stroke-miterlimit="10" stroke-linecap="round" stroke-linejoin="round"/>
<path d="M51.8187 128.67C51.8187 128.67 47.7123 123.88 45.7742 125.02C43.8352 126.161 43.0366 129.468 44.633 130.495C46.2302 131.522 48.055 127.872 48.055 127.872L51.8187 128.67Z" fill="white"/>
<path d="M51.8187 128.67C51.8187 128.67 47.7123 123.88 45.7742 125.02C43.8352 126.161 43.0366 129.468 44.633 130.495C46.2302 131.522 48.055 127.872 48.055 127.872L51.8187 128.67Z" stroke="#393939" stroke-miterlimit="10" stroke-linecap="round" stroke-linejoin="round"/>
<path d="M45.7745 125.02C45.7745 125.02 43.0369 124.337 42.1249 125.477C41.2121 126.617 40.5277 129.583 41.8965 130.609C43.2653 131.636 43.7213 129.583 43.7213 129.583C43.7213 129.583 43.4928 126.959 45.7745 125.02" fill="white"/>
<path d="M45.7745 125.02C45.7745 125.02 43.0369 124.337 42.1249 125.477C41.2121 126.617 40.5277 129.583 41.8965 130.609C43.2653 131.636 43.7213 129.583 43.7213 129.583C43.7213 129.583 43.4928 126.959 45.7745 125.02V125.02Z" stroke="#393939" stroke-miterlimit="10" stroke-linecap="round" stroke-linejoin="round"/>
<path d="M41.6681 125.704C41.6681 125.704 38.5887 125.475 38.3603 126.616C38.1328 127.757 38.7029 132.775 39.9575 132.775C41.2112 132.775 41.3255 129.012 41.3255 129.012C41.3255 129.012 41.4397 126.958 41.6681 125.704Z" fill="white"/>
<path d="M41.6681 125.704C41.6681 125.704 38.5887 125.475 38.3603 126.616C38.1328 127.757 38.7029 132.775 39.9575 132.775C41.2112 132.775 41.3255 129.012 41.3255 129.012C41.3255 129.012 41.4397 126.958 41.6681 125.704Z" stroke="#393939" stroke-miterlimit="10" stroke-linecap="round" stroke-linejoin="round"/>
<path d="M38.1325 127.073C38.1325 127.073 35.2815 127.416 35.3949 129.81C35.5091 132.205 37.4481 135.171 38.0182 134.6C38.5893 134.03 38.816 130.722 38.816 130.722L38.1325 127.073Z" fill="white"/>
<path d="M38.1325 127.073C38.1325 127.073 35.2815 127.416 35.3949 129.81C35.5091 132.205 37.4481 135.171 38.0182 134.6C38.5893 134.03 38.816 130.722 38.816 130.722L38.1325 127.073Z" stroke="#393939" stroke-miterlimit="10" stroke-linecap="round" stroke-linejoin="round"/>
<path d="M119.328 126.424C119.328 126.424 123.282 130.158 131.189 140.042C139.096 149.926 134.484 168.815 134.484 168.815C134.484 168.815 142.391 185.068 145.466 192.975C148.541 200.882 150.298 206.373 150.298 206.373C150.298 206.373 164.135 201.761 173.14 203.738C182.146 205.714 195.324 209.668 200.595 209.668H207.404C207.404 209.668 213.115 200.223 216.849 201.761C220.583 203.298 226.074 212.084 226.074 212.084C226.074 212.084 237.056 219.771 239.911 221.309C242.766 222.846 239.472 223.945 236.177 223.945C232.883 223.945 217.068 221.968 212.895 220.87C208.722 219.771 187.197 223.945 178.412 224.164C169.626 224.384 149.639 224.164 143.05 223.505C136.46 222.846 133.825 224.823 130.53 221.748C127.235 218.673 111.202 195.831 107.907 188.802C104.613 181.774 101.098 176.063 101.098 176.063C101.098 176.063 88.3591 175.184 76.0592 167.936C63.7594 160.688 52.7773 152.561 52.7773 152.561C52.7773 152.561 54.3148 167.058 50.8006 174.086C47.2863 181.115 43.9917 206.593 43.1132 212.084C42.2346 217.575 44.2113 230.314 42.2346 231.632C40.2578 232.95 7.97067 231.632 7.97067 231.632C7.97067 231.632 5.9939 232.071 4.67606 230.534C3.35822 228.996 5.55463 227.679 8.19031 227.239C10.826 226.8 20.4902 221.968 23.7848 219.332C27.0794 216.697 30.374 212.963 30.8133 210.986C31.2526 209.009 30.8133 183.092 30.5936 180.456C30.374 177.82 28.8365 151.683 31.2526 142.897C33.6686 134.112 44.6506 131.915 49.2631 131.256C53.8755 130.597 81.8867 135.337 81.8867 135.337L80.8913 131.256C80.8913 131.256 92.093 124.887 119.328 126.424Z" fill="purple"/>
<path d="M119.328 126.424C119.328 126.424 123.282 130.158 131.189 140.042C139.096 149.926 134.484 168.815 134.484 168.815C134.484 168.815 142.391 185.068 145.466 192.975C148.541 200.882 150.298 206.373 150.298 206.373C150.298 206.373 164.135 201.761 173.14 203.738C182.146 205.714 195.324 209.668 200.595 209.668H207.404C207.404 209.668 213.115 200.223 216.849 201.761C220.583 203.298 226.074 212.084 226.074 212.084C226.074 212.084 237.056 219.771 239.911 221.309C242.766 222.846 239.472 223.945 236.177 223.945C232.883 223.945 217.068 221.968 212.895 220.87C208.722 219.771 187.197 223.945 178.412 224.164C169.626 224.384 149.639 224.164 143.05 223.505C136.46 222.846 133.825 224.823 130.53 221.748C127.235 218.673 111.202 195.831 107.907 188.802C104.613 181.774 101.098 176.063 101.098 176.063C101.098 176.063 88.3591 175.184 76.0592 167.936C63.7594 160.688 52.7773 152.561 52.7773 152.561C52.7773 152.561 54.3148 167.058 50.8006 174.086C47.2863 181.115 43.9917 206.593 43.1132 212.084C42.2346 217.575 44.2114 230.314 42.2346 231.632C40.2578 232.95 7.97067 231.632 7.97067 231.632C7.97067 231.632 5.9939 232.071 4.67606 230.534C3.35821 228.996 5.55462 227.679 8.19031 227.239C10.826 226.8 20.4902 221.968 23.7848 219.332C27.0794 216.697 30.374 212.963 30.8133 210.986C31.2526 209.009 30.8133 183.092 30.5936 180.456C30.374 177.82 28.8365 151.683 31.2526 142.897C33.6686 134.112 44.6506 131.915 49.2631 131.256C53.8755 130.597 81.8867 135.337 81.8867 135.337L80.8913 131.256C80.8913 131.256 92.093 124.887 119.328 126.424Z" stroke="#393939" stroke-miterlimit="10" stroke-linecap="round" stroke-linejoin="round"/>
<path d="M52.7772 152.561L48.5865 146.915L52.9837 160.106L52.7772 152.561Z" fill="#393939"/>
<path d="M52.7772 152.561L48.5865 146.915L52.9837 160.106L52.7772 152.561Z" stroke="#393939" stroke-miterlimit="10" stroke-linecap="round" stroke-linejoin="round"/>
<path d="M119.329 126.425C119.329 126.425 123.282 130.159 131.189 140.042C139.096 149.926 134.484 168.815 134.484 168.815C134.484 168.815 136.727 173.425 139.287 178.929C129.213 187.988 116.311 190.416 109.075 191.033C108.599 190.183 108.201 189.428 107.907 188.803C104.613 181.774 101.098 176.063 101.098 176.063C101.098 176.063 96.5018 175.745 90.1673 173.922C92.6238 170.146 95.0679 164.704 94.7288 158.272C94.0699 145.753 88.7985 136.748 88.7985 136.748L81.8869 135.338L80.8915 131.257C80.8915 131.257 92.0931 124.887 119.329 126.425Z" fill="purple"/>
<path d="M108.958 174.704C113.917 173.238 120.893 169.946 124.6 162.666" stroke="white" stroke-miterlimit="10" stroke-linecap="round" stroke-linejoin="round"/>
<path d="M103.295 175.844C103.295 175.844 104.242 175.775 105.759 175.484" stroke="white" stroke-miterlimit="10" stroke-linecap="round" stroke-linejoin="round"/>
<path d="M91.2142 137.407C91.2142 137.407 96.266 136.968 103.514 139.604" stroke="white" stroke-miterlimit="10" stroke-linecap="round" stroke-linejoin="round"/>
<path d="M24.9453 209.266L25.2582 209.656L25.5602 209.414L25.4012 209.061L24.9453 209.266ZM24.9453 209.266C25.2582 209.656 25.2581 209.656 25.258 209.656L25.2575 209.657L25.2557 209.658L25.2483 209.664L25.2191 209.688L25.1049 209.779C25.0047 209.859 24.8571 209.977 24.6676 210.129C24.2887 210.432 23.7421 210.868 23.0714 211.401C21.73 212.467 19.8921 213.922 17.9058 215.477C13.9397 218.582 9.36188 222.101 6.97398 223.707C2.44091 226.755 1.73954 231.424 1.50386 235.012M24.9453 209.266L25.4012 209.061L25.4011 209.061L25.4005 209.059L25.3979 209.054L25.3877 209.031L25.3473 208.94C25.312 208.86 25.2602 208.742 25.1951 208.591C25.0647 208.289 24.8809 207.857 24.6676 207.334C24.2406 206.288 23.6972 204.885 23.2281 203.453C22.7569 202.014 22.3699 200.572 22.2423 199.439C22.1782 198.869 22.1842 198.414 22.2572 198.089C22.3299 197.765 22.447 197.652 22.5422 197.609C23.0545 197.38 24.1515 197.159 25.6022 197.003C27.03 196.849 28.7366 196.764 30.4225 196.777C32.1108 196.79 33.7616 196.902 35.0828 197.138C35.744 197.256 36.3078 197.402 36.7468 197.575C37.1967 197.753 37.4613 197.937 37.5874 198.099C37.9348 198.544 38.211 199.256 38.4171 200.131C38.6203 200.993 38.7437 201.962 38.8168 202.878C38.8898 203.792 38.9119 204.643 38.9156 205.265C38.9175 205.576 38.9148 205.829 38.9117 206.004C38.9101 206.092 38.9084 206.16 38.9072 206.205L38.9056 206.257L38.9052 206.269L38.9051 206.272L38.9051 206.273L38.9051 206.273L38.8784 206.994L39.5627 206.766L39.5627 206.766L39.5628 206.766L39.5636 206.766L39.5675 206.764L39.5841 206.759L39.6509 206.737C39.71 206.718 39.7975 206.69 39.9095 206.656C40.1335 206.587 40.4553 206.491 40.8439 206.385C41.6228 206.172 42.663 205.918 43.72 205.749C44.7862 205.579 45.8295 205.502 46.6308 205.62C47.4536 205.742 47.8276 206.03 47.9271 206.416L1.50386 235.012M1.50386 235.012C1.46195 235.654 1.82129 236.224 2.65923 236.748C3.501 237.273 4.73061 237.683 6.17847 237.998C9.06478 238.625 12.6401 238.837 15.2475 238.943C20.418 239.154 27.6803 238.307 32.3255 236.223L32.3255 236.223C34.6675 235.173 36.9577 233.858 38.6665 232.801C39.5199 232.274 40.2259 231.813 40.7181 231.483C40.9642 231.319 41.1567 231.187 41.2873 231.097C41.3526 231.052 41.4025 231.018 41.4358 230.994L41.4733 230.968L41.4824 230.962L41.4846 230.96L41.4851 230.96L41.4851 230.96L41.4852 230.96L41.5551 230.91L41.6375 230.887L41.6376 230.887L41.6376 230.887M1.50386 235.012L41.6376 230.887M47.4625 211.604C46.963 211.627 46.963 211.627 46.963 211.627L46.963 211.628L46.9631 211.63L46.9635 211.638L46.965 211.671L46.9707 211.801C46.9757 211.914 46.9828 212.081 46.9916 212.294C47.0092 212.721 47.0333 213.331 47.0592 214.069C47.111 215.545 47.1702 217.527 47.1997 219.554C47.2293 221.583 47.2292 223.651 47.163 225.301C47.1299 226.127 47.0806 226.839 47.0118 227.386C46.9774 227.659 46.9391 227.882 46.8981 228.053C46.8544 228.235 46.8169 228.316 46.8037 228.337L47.4625 211.604ZM47.4625 211.604L46.963 211.627L46.9556 211.466L47.0429 211.332L47.043 211.332L47.0431 211.332L47.0432 211.332L47.0433 211.332L47.0451 211.329L47.0558 211.312C47.0657 211.296 47.081 211.271 47.1009 211.237C47.1405 211.169 47.198 211.067 47.2655 210.935C47.4008 210.67 47.5752 210.289 47.7286 209.826C48.0373 208.895 48.2497 207.671 47.9271 206.416L47.4625 211.604ZM41.6376 230.887L41.638 230.887L41.6399 230.886L41.6486 230.884L41.6844 230.873C41.7163 230.864 41.7636 230.85 41.8246 230.832C41.9465 230.795 42.1226 230.74 42.3371 230.67C42.7669 230.53 43.348 230.328 43.9564 230.081C44.5668 229.833 45.1935 229.545 45.7192 229.234C46.2598 228.914 46.6328 228.605 46.8036 228.337L41.6376 230.887Z" fill="white" stroke="#393939"/>
<path d="M39.4043 227.33C35.1375 229.668 32.0552 234.344 18.7819 235.193C9.53093 235.787 3.85805 233.8 1.26453 232.54C1.13879 233.388 1.05591 234.217 1.00447 234.981C0.767265 238.594 10.0125 239.23 15.2267 239.443C20.4409 239.656 27.7899 238.806 32.5297 236.681C37.2709 234.555 41.7749 231.368 41.7749 231.368C41.7749 231.368 46.2789 230.092 47.2263 228.605C47.5163 228.15 47.6507 226.372 47.6978 224.131C45.2543 224.851 41.8606 225.983 39.4043 227.33Z" fill="black" stroke="#393939" stroke-miterlimit="10" stroke-linecap="round" stroke-linejoin="round"/>
<path d="M26.1304 209.267L35.6114 209.692C35.6114 209.692 34.664 214.58 29.9228 216.918C25.1816 219.256 21.1534 218.192 21.865 215.005C22.5752 211.818 26.1304 209.267 26.1304 209.267Z" fill="purple" stroke="#393939" stroke-miterlimit="10" stroke-linecap="round" stroke-linejoin="round"/>
<path d="M108.483 102.74L85.5098 96.9966C84.6894 90.1592 87.1508 73.5308 96.9966 64.9977C106.842 56.4647 114.227 72.3821 112.586 83.0484L108.483 102.74Z" fill="black" stroke="#393939"/>
</svg>
