<svg width="242" height="240" viewBox="0 0 242 240" fill="none" xmlns="http://www.w3.org/2000/svg">
<path d="M77.3771 87.767L68.3718 102.703L49.7023 128.62L59.5862 132.134L81.3306 109.292C81.3306 109.292 83.3073 103.362 82.4288 98.3098C81.5502 93.258 77.3771 87.767 77.3771 87.767Z" fill="white"/>
<path d="M77.3771 87.767L68.3718 102.703L49.7023 128.62L59.5862 132.134L81.3306 109.292C81.3306 109.292 83.3073 103.362 82.4288 98.3098C81.5502 93.258 77.3771 87.767 77.3771 87.767Z" stroke="#393939" stroke-miterlimit="10" stroke-linecap="round" stroke-linejoin="round"/>
<path d="M69.4702 103.8C69.4702 103.8 73.863 109.731 78.2558 110.829" stroke="#393939" stroke-miterlimit="10" stroke-linecap="round" stroke-linejoin="round"/>
<path d="M72.7362 10.8066C72.7362 10.8066 69.4899 17.0374 69.4899 19.4253C69.4899 21.8124 70.5011 26.7666 69.5066 28.1591C68.5112 29.5516 66.7215 31.5407 66.921 32.3366C67.1186 33.1326 70.5011 35.1217 70.5011 35.1217C70.5011 35.1217 71.9402 46.2162 73.9292 47.0122C75.9183 47.8081 79.4993 48.4047 79.4993 48.4047C79.4993 48.4047 85.4024 49.2762 87.2579 54.9693C88.14 57.6779 87.2579 65.1149 85.2688 68.0985C83.2789 71.083 75.1232 82.4217 74.5258 89.7832C73.9292 97.1438 79.4993 102.315 80.2953 103.31C81.0913 104.305 78.7034 119.423 79.8973 125.989C81.0913 132.552 81.8864 135.338 81.8864 135.338L123.861 133.15C123.861 133.15 118.888 128.375 117.694 117.633C116.501 106.891 118.49 95.7504 118.49 85.2068C118.49 74.664 115.705 65.1149 112.125 59.7434C108.544 54.3728 104.963 50.7917 103.57 44.8237C102.178 38.8556 104.566 38.259 104.566 38.259C104.566 38.259 112.125 32.4904 108.344 19.7583C104.566 7.02702 88.0539 1.05896 72.7362 10.8066Z" fill="white"/>
<path d="M72.7362 10.8066C72.7362 10.8066 69.4899 17.0374 69.4899 19.4253C69.4899 21.8124 70.5011 26.7666 69.5066 28.1591C68.5112 29.5516 66.7215 31.5407 66.921 32.3367C67.1186 33.1326 70.5011 35.1217 70.5011 35.1217C70.5011 35.1217 71.9402 46.2162 73.9292 47.0122C75.9183 47.8081 79.4993 48.4047 79.4993 48.4047C79.4993 48.4047 85.4024 49.2762 87.2579 54.9693C88.14 57.6779 87.2579 65.1149 85.2688 68.0985C83.2789 71.083 75.1232 82.4217 74.5258 89.7832C73.9292 97.1438 79.4993 102.315 80.2953 103.31C81.0913 104.305 78.7034 119.423 79.8973 125.989C81.0913 132.552 81.8864 135.338 81.8864 135.338L123.861 133.15C123.861 133.15 118.888 128.375 117.694 117.633C116.501 106.891 118.49 95.7504 118.49 85.2068C118.49 74.664 115.705 65.1149 112.125 59.7434C108.544 54.3728 104.963 50.7917 103.57 44.8237C102.178 38.8556 104.566 38.259 104.566 38.259C104.566 38.259 112.125 32.4904 108.344 19.7583C104.566 7.02703 88.0539 1.05896 72.7362 10.8066Z" stroke="#393939" stroke-miterlimit="10" stroke-linecap="round" stroke-linejoin="round"/>
<path d="M92.0321 27.3171C92.0321 27.3171 89.8444 25.7251 82.0859 19.9565C74.3273 14.1878 69.3546 9.81082 70.9457 6.42924C72.5376 3.04677 89.645 -1.12992 100.388 2.25166C111.129 5.63325 113.914 11.7999 114.71 19.5585C115.506 27.3171 118.454 52.7649 115.868 55.152C113.281 57.539 94.0148 57.937 90.4329 55.152C86.8528 52.3669 95.2151 29.7041 95.2151 29.7041L92.0321 27.3171Z" fill="#393939"/>
<path d="M92.0319 27.317C92.0319 27.317 89.8443 25.7251 82.0857 19.9564C74.3271 14.1878 69.3545 9.81081 70.9455 6.42922C72.5375 3.04676 89.6449 -1.12993 100.388 2.25166C111.129 5.63324 113.914 11.7999 114.71 19.5585C115.506 27.317 110.732 38.2586 108.146 40.6457C105.559 43.0328 102.775 41.8388 99.1931 39.0537C95.6129 36.2687 95.2149 29.7041 95.2149 29.7041L92.0319 27.317Z" stroke="#393939" stroke-miterlimit="10" stroke-linecap="round" stroke-linejoin="round"/>
<path d="M89.446 28.9086C89.446 28.9086 92.0316 20.5535 95.812 22.9405C99.5916 25.3276 97.0051 33.8822 95.6135 34.6773C94.2209 35.4732 91.833 33.6827 91.833 33.6827C91.833 33.6827 92.7581 42.9691 88.2775 44.3327" fill="white"/>
<path d="M89.446 28.9086C89.446 28.9086 92.0316 20.5535 95.812 22.9405C99.5916 25.3276 97.0051 33.8822 95.6135 34.6773C94.2209 35.4732 91.833 33.6827 91.833 33.6827C91.833 33.6827 92.7581 42.9691 88.2775 44.3327" stroke="#393939" stroke-miterlimit="10" stroke-linecap="round" stroke-linejoin="round"/>
<path d="M72.2916 26.964C72.2916 27.9524 72.737 28.7545 73.2861 28.7545C73.8352 28.7545 74.2806 27.9524 74.2806 26.964C74.2806 25.9756 73.8352 25.1735 73.2861 25.1735C72.737 25.1735 72.2916 25.9756 72.2916 26.964Z" fill="#393939"/>
<path d="M75.475 23.1852C75.475 23.1852 74.281 21.1952 71.496 22.5878L75.475 23.1852Z" fill="white"/>
<path d="M75.475 23.1852C75.475 23.1852 74.281 21.1952 71.496 22.5878" stroke="#393939" stroke-miterlimit="10" stroke-linecap="round" stroke-linejoin="round"/>
<path d="M77.2645 36.7124C77.2645 36.7124 75.872 38.3043 71.6944 38.3043L77.2645 36.7124Z" fill="white"/>
<path d="M77.2645 36.7124C77.2645 36.7124 75.872 38.3043 71.6944 38.3043" stroke="#393939" stroke-miterlimit="10" stroke-linecap="round" stroke-linejoin="round"/>
<path d="M74.5257 89.7827C74.828 86.0567 77.0683 81.3142 79.4633 77.149C80.0071 77.5136 80.6282 77.5997 81.3302 77.2263C84.6248 75.4691 90.9944 61.6318 99.78 59.655C106.774 58.0806 113.206 64.2973 115.541 66.9005C117.326 72.0208 118.49 78.4027 118.49 85.2071C118.49 92.4746 117.545 100.027 117.349 107.536H80.326C80.4833 105.241 80.5386 103.614 80.2944 103.309C79.4993 102.315 73.9292 97.1424 74.5257 89.7827Z" fill="black"/>
<path d="M74.5257 89.7827C74.828 86.0567 77.0683 81.3142 79.4633 77.1489C80.0071 77.5136 80.6282 77.5997 81.3302 77.2263C84.6248 75.4691 90.9944 61.6318 99.78 59.655C106.774 58.0806 113.206 64.2973 115.541 66.9005C117.326 72.0208 118.49 78.4027 118.49 85.2071C118.49 92.4746 117.545 100.027 117.349 107.536H80.326C80.4833 105.241 80.5386 103.614 80.2944 103.309C79.4993 102.315 73.9292 97.1424 74.5257 89.7827Z" stroke="#393939" stroke-miterlimit="10" stroke-linecap="round" stroke-linejoin="round"/>
<path d="M85.943 106.218C85.943 106.218 87.2608 86.0109 89.4573 77.4449C91.6537 68.8789 97.1447 63.1683 101.977 62.2897C106.809 61.4111 112.08 68.4396 112.52 75.4681C112.959 82.4966 110.945 87.1513 110.124 92.0742C108.148 95.1491 108.346 98.75 108.346 98.75C108.346 98.75 101.537 119.836 99.5607 120.714C97.584 121.593 62.4415 134.551 60.6843 134.991C58.9272 135.43 55.6326 135.869 53.8755 135.43C52.1184 134.991 43.9916 135.21 42.0149 135.21C40.0381 135.21 37.6221 135.869 36.9632 134.771C36.3042 133.673 40.697 128.182 43.772 127.962C46.847 127.743 55.8522 129.5 57.6094 129.5C59.3665 129.5 78.0359 111.709 80.2323 109.952C82.4288 108.195 85.943 106.218 85.943 106.218Z" fill="white"/>
<path d="M85.9432 106.218C85.9432 106.218 87.2611 86.0109 89.4575 77.4449C91.6539 68.8789 97.1449 63.1683 101.977 62.2897C106.809 61.4111 112.08 68.4396 112.52 75.4681C112.959 82.4966 111.766 85.9128 110.125 92.0742C108.347 98.75 108.347 98.75 108.347 98.75C108.347 98.75 101.538 119.836 99.5609 120.714C97.5842 121.593 62.4417 134.551 60.6846 134.991C58.9274 135.43 55.6328 135.869 53.8757 135.43C52.1186 134.991 43.9919 135.21 42.0151 135.21C40.0383 135.21 37.6223 135.869 36.9634 134.771C36.3045 133.673 40.6973 128.182 43.7722 127.962C46.8472 127.743 55.8525 129.5 57.6096 129.5C59.3667 129.5 78.0362 111.709 80.2326 109.952C82.429 108.195 85.9432 106.218 85.9432 106.218Z" stroke="#393939" stroke-miterlimit="10" stroke-linecap="round" stroke-linejoin="round"/>
<path d="M51.8187 128.669C51.8187 128.669 47.7123 123.879 45.7742 125.02C43.8352 126.161 43.0366 129.468 44.6329 130.494C46.2302 131.521 48.0549 127.872 48.0549 127.872L51.8187 128.669Z" fill="white"/>
<path d="M51.8187 128.669C51.8187 128.669 47.7123 123.879 45.7742 125.02C43.8352 126.161 43.0366 129.468 44.6329 130.494C46.2302 131.521 48.0549 127.872 48.0549 127.872L51.8187 128.669Z" stroke="#393939" stroke-miterlimit="10" stroke-linecap="round" stroke-linejoin="round"/>
<path d="M45.7745 125.02C45.7745 125.02 43.0369 124.336 42.1249 125.477C41.2121 126.616 40.5277 129.582 41.8965 130.608C43.2653 131.636 43.7213 129.582 43.7213 129.582C43.7213 129.582 43.4928 126.959 45.7745 125.02" fill="white"/>
<path d="M45.7745 125.02C45.7745 125.02 43.0369 124.336 42.1249 125.477C41.2121 126.616 40.5277 129.582 41.8965 130.608C43.2653 131.636 43.7213 129.582 43.7213 129.582C43.7213 129.582 43.4928 126.959 45.7745 125.02V125.02Z" stroke="#393939" stroke-miterlimit="10" stroke-linecap="round" stroke-linejoin="round"/>
<path d="M41.6681 125.703C41.6681 125.703 38.5887 125.475 38.3603 126.615C38.1327 127.757 38.7029 132.775 39.9575 132.775C41.2112 132.775 41.3254 129.011 41.3254 129.011C41.3254 129.011 41.4396 126.958 41.6681 125.703Z" fill="white"/>
<path d="M41.6681 125.703C41.6681 125.703 38.5887 125.475 38.3603 126.615C38.1327 127.757 38.7029 132.775 39.9575 132.775C41.2112 132.775 41.3254 129.011 41.3254 129.011C41.3254 129.011 41.4396 126.958 41.6681 125.703Z" stroke="#393939" stroke-miterlimit="10" stroke-linecap="round" stroke-linejoin="round"/>
<path d="M38.1325 127.073C38.1325 127.073 35.2816 127.415 35.3949 129.81C35.5091 132.205 37.4481 135.171 38.0183 134.6C38.5893 134.03 38.816 130.722 38.816 130.722L38.1325 127.073Z" fill="white"/>
<path d="M38.1325 127.073C38.1325 127.073 35.2816 127.415 35.3949 129.81C35.5091 132.205 37.4481 135.171 38.0183 134.6C38.5893 134.03 38.816 130.722 38.816 130.722L38.1325 127.073Z" stroke="#393939" stroke-miterlimit="10" stroke-linecap="round" stroke-linejoin="round"/>
<path d="M119.328 126.424C119.328 126.424 123.282 130.158 131.189 140.042C139.096 149.925 134.484 168.815 134.484 168.815C134.484 168.815 142.391 185.068 145.466 192.975C148.541 200.882 150.298 206.373 150.298 206.373C150.298 206.373 164.135 201.761 173.14 203.737C182.146 205.714 195.324 209.668 200.595 209.668H207.404C207.404 209.668 213.115 200.223 216.849 201.761C220.583 203.298 226.074 212.084 226.074 212.084C226.074 212.084 237.056 219.771 239.911 221.309C242.766 222.846 239.472 223.944 236.177 223.944C232.883 223.944 217.068 221.968 212.895 220.869C208.722 219.771 187.197 223.944 178.412 224.164C169.626 224.384 149.639 224.164 143.05 223.505C136.46 222.846 133.825 224.823 130.53 221.748C127.235 218.673 111.202 195.83 107.907 188.802C104.612 181.773 101.098 176.063 101.098 176.063C101.098 176.063 88.3591 175.184 76.0592 167.936C63.7593 160.688 52.7773 152.561 52.7773 152.561C52.7773 152.561 54.3148 167.057 50.8005 174.086C47.2863 181.114 43.9917 206.593 43.1131 212.084C42.2346 217.575 44.2113 230.314 42.2346 231.632C40.2578 232.95 7.97064 231.632 7.97064 231.632C7.97064 231.632 5.99387 232.071 4.67603 230.534C3.35818 228.996 5.5546 227.678 8.19028 227.239C10.826 226.8 20.4901 221.968 23.7848 219.332C27.0794 216.696 30.374 212.962 30.8132 210.986C31.2525 209.009 30.8132 183.091 30.5936 180.455C30.374 177.82 28.8365 151.683 31.2525 142.897C33.6686 134.111 44.6506 131.915 49.2631 131.256C53.8755 130.597 81.8867 135.337 81.8867 135.337L80.8913 131.256C80.8913 131.256 92.093 124.886 119.328 126.424Z" fill="purple"/>
<path d="M119.328 126.424C119.328 126.424 123.282 130.158 131.189 140.042C139.096 149.925 134.484 168.815 134.484 168.815C134.484 168.815 142.391 185.068 145.466 192.975C148.541 200.882 150.298 206.373 150.298 206.373C150.298 206.373 164.135 201.761 173.14 203.737C182.146 205.714 195.324 209.668 200.595 209.668H207.404C207.404 209.668 213.115 200.223 216.849 201.761C220.583 203.298 226.074 212.084 226.074 212.084C226.074 212.084 237.056 219.771 239.911 221.309C242.766 222.846 239.472 223.944 236.177 223.944C232.883 223.944 217.068 221.968 212.895 220.869C208.722 219.771 187.197 223.944 178.412 224.164C169.626 224.384 149.639 224.164 143.05 223.505C136.46 222.846 133.825 224.823 130.53 221.748C127.235 218.673 111.202 195.83 107.907 188.802C104.612 181.773 101.098 176.063 101.098 176.063C101.098 176.063 88.3591 175.184 76.0592 167.936C63.7593 160.688 52.7773 152.561 52.7773 152.561C52.7773 152.561 54.3148 167.057 50.8005 174.086C47.2863 181.114 43.9917 206.593 43.1131 212.084C42.2346 217.575 44.2113 230.314 42.2346 231.632C40.2578 232.95 7.97064 231.632 7.97064 231.632C7.97064 231.632 5.99387 232.071 4.67603 230.534C3.35818 228.996 5.55459 227.678 8.19028 227.239C10.826 226.8 20.4901 221.968 23.7848 219.332C27.0794 216.696 30.374 212.962 30.8133 210.986C31.2525 209.009 30.8133 183.091 30.5936 180.455C30.374 177.82 28.8365 151.683 31.2525 142.897C33.6686 134.111 44.6506 131.915 49.2631 131.256C53.8755 130.597 81.8867 135.337 81.8867 135.337L80.8913 131.256C80.8913 131.256 92.093 124.886 119.328 126.424Z" stroke="#393939" stroke-miterlimit="10" stroke-linecap="round" stroke-linejoin="round"/>
<path d="M52.7772 152.561L48.5865 146.914L52.9837 160.106L52.7772 152.561Z" fill="#393939"/>
<path d="M52.7772 152.561L48.5865 146.914L52.9837 160.106L52.7772 152.561Z" stroke="#393939" stroke-miterlimit="10" stroke-linecap="round" stroke-linejoin="round"/>
<path d="M119.329 126.424C119.329 126.424 123.282 130.158 131.189 140.042C139.096 149.926 134.484 168.815 134.484 168.815C134.484 168.815 136.727 173.425 139.287 178.929C129.213 187.988 116.311 190.415 109.075 191.033C108.599 190.182 108.201 189.428 107.907 188.802C104.613 181.774 101.098 176.063 101.098 176.063C101.098 176.063 96.5018 175.745 90.1673 173.922C92.6238 170.146 95.0679 164.704 94.7288 158.272C94.0699 145.753 88.7985 136.747 88.7985 136.747L81.8869 135.337L80.8915 131.256C80.8915 131.256 92.0931 124.887 119.329 126.424Z" fill="purple"/>
<path d="M108.958 174.704C113.917 173.237 120.893 169.945 124.6 162.666" stroke="white" stroke-miterlimit="10" stroke-linecap="round" stroke-linejoin="round"/>
<path d="M103.295 175.843C103.295 175.843 104.242 175.775 105.759 175.483" stroke="white" stroke-miterlimit="10" stroke-linecap="round" stroke-linejoin="round"/>
<path d="M91.2142 137.407C91.2142 137.407 96.266 136.967 103.514 139.603" stroke="white" stroke-miterlimit="10" stroke-linecap="round" stroke-linejoin="round"/>
<path d="M24.9453 209.266L25.2582 209.656L25.5603 209.414L25.4012 209.061L24.9453 209.266ZM24.9453 209.266C25.2582 209.656 25.2582 209.656 25.258 209.656L25.2576 209.656L25.2557 209.658L25.2483 209.664L25.2191 209.687L25.105 209.779C25.0047 209.859 24.8572 209.977 24.6677 210.128C24.2887 210.431 23.7421 210.867 23.0714 211.401C21.7301 212.467 19.8921 213.922 17.9058 215.477C13.9397 218.582 9.36191 222.101 6.97401 223.706C2.44094 226.755 1.73957 231.424 1.50389 235.012M24.9453 209.266L25.4012 209.06L25.4011 209.06L25.4005 209.059L25.398 209.053L25.3877 209.03L25.3474 208.939C25.312 208.859 25.2602 208.741 25.1951 208.591C25.0648 208.289 24.8809 207.856 24.6676 207.334C24.2406 206.287 23.6972 204.885 23.2282 203.453C22.757 202.014 22.37 200.572 22.2424 199.438C22.1782 198.868 22.1843 198.413 22.2572 198.088C22.3299 197.764 22.4471 197.652 22.5423 197.609C23.0545 197.38 24.1515 197.159 25.6023 197.003C27.03 196.849 28.7366 196.763 30.4225 196.777C32.1108 196.79 33.7616 196.902 35.0828 197.137C35.7441 197.255 36.3078 197.402 36.7468 197.575C37.1968 197.752 37.4613 197.937 37.5874 198.099C37.9349 198.544 38.2111 199.256 38.4171 200.13C38.6204 200.993 38.7437 201.962 38.8168 202.878C38.8898 203.792 38.9119 204.642 38.9157 205.265C38.9176 205.576 38.9149 205.829 38.9117 206.004C38.9101 206.092 38.9085 206.159 38.9072 206.205L38.9056 206.256L38.9052 206.269L38.9051 206.272L38.9051 206.273L38.9051 206.273L38.8784 206.993L39.5627 206.765L39.5628 206.765L39.5629 206.765L39.5637 206.765L39.5676 206.764L39.5841 206.758L39.6509 206.737C39.71 206.718 39.7975 206.69 39.9095 206.656C40.1335 206.587 40.4553 206.491 40.844 206.385C41.6229 206.172 42.663 205.917 43.72 205.749C44.7862 205.578 45.8295 205.502 46.6308 205.62C47.4537 205.741 47.8277 206.03 47.9271 206.416L1.50389 235.012M1.50389 235.012C1.46198 235.654 1.82132 236.224 2.65926 236.747C3.50103 237.273 4.73064 237.683 6.1785 237.998C9.06481 238.625 12.6401 238.837 15.2475 238.943C20.418 239.154 27.6803 238.307 32.3255 236.223L32.3256 236.223C34.6675 235.173 36.9578 233.857 38.6666 232.801C39.5199 232.274 40.226 231.812 40.7182 231.483C40.9642 231.319 41.1567 231.187 41.2874 231.097C41.3527 231.052 41.4025 231.017 41.4358 230.994L41.4733 230.968L41.4825 230.961L41.4846 230.96L41.4851 230.96L41.4852 230.959L41.4852 230.959L41.5552 230.91L41.6376 230.887L41.6376 230.887L41.6376 230.887M1.50389 235.012L41.6376 230.887M47.4625 211.604C46.963 211.627 46.963 211.627 46.963 211.627L46.9631 211.627L46.9632 211.63L46.9635 211.638L46.965 211.671L46.9708 211.8C46.9757 211.914 46.9829 212.081 46.9917 212.294C47.0092 212.72 47.0333 213.331 47.0592 214.069C47.111 215.544 47.1702 217.526 47.1998 219.554C47.2294 221.583 47.2292 223.651 47.1631 225.301C47.1299 226.127 47.0806 226.839 47.0118 227.385C46.9774 227.659 46.9392 227.882 46.8981 228.053C46.8544 228.235 46.8169 228.316 46.8037 228.337L47.4625 211.604ZM47.4625 211.604L46.963 211.627L46.9557 211.466L47.0429 211.332L47.0431 211.332L47.0431 211.332L47.0432 211.332L47.0434 211.331L47.0451 211.329L47.0558 211.311C47.0657 211.295 47.0811 211.27 47.1009 211.236C47.1406 211.169 47.198 211.066 47.2655 210.934C47.4008 210.67 47.5752 210.289 47.7287 209.826C48.0373 208.895 48.2497 207.671 47.9271 206.416L47.4625 211.604ZM41.6376 230.887L41.638 230.886L41.6399 230.886L41.6487 230.883L41.6845 230.873C41.7163 230.864 41.7637 230.85 41.8246 230.831C41.9465 230.794 42.1226 230.74 42.3371 230.67C42.7669 230.529 43.348 230.327 43.9564 230.081C44.5668 229.833 45.1935 229.545 45.7193 229.234C46.2598 228.914 46.6328 228.605 46.8037 228.337L41.6376 230.887Z" fill="white" stroke="#393939"/>
<path d="M39.4043 227.33C35.1375 229.668 32.0553 234.344 18.7819 235.193C9.53094 235.786 3.85807 233.799 1.26455 232.54C1.1388 233.388 1.05592 234.217 1.00448 234.98C0.767281 238.593 10.0125 239.23 15.2267 239.443C20.4409 239.655 27.7899 238.806 32.5297 236.68C37.2709 234.555 41.7749 231.368 41.7749 231.368C41.7749 231.368 46.2789 230.092 47.2263 228.604C47.5164 228.15 47.6507 226.371 47.6978 224.131C45.2543 224.851 41.8606 225.983 39.4043 227.33Z" fill="black" stroke="#393939" stroke-miterlimit="10" stroke-linecap="round" stroke-linejoin="round"/>
<path d="M26.1304 209.267L35.6114 209.692C35.6114 209.692 34.664 214.579 29.9228 216.917C25.1816 219.255 21.1534 218.192 21.865 215.005C22.5752 211.817 26.1304 209.267 26.1304 209.267Z" fill="purple" stroke="#393939" stroke-miterlimit="10" stroke-linecap="round" stroke-linejoin="round"/>
<path d="M108.483 102.74L85.5098 96.9962C84.6894 90.1589 87.1508 73.5304 96.9966 64.9974C106.842 56.4644 114.227 72.3817 112.586 83.048L108.483 102.74Z" fill="black" stroke="#393939"/>
</svg>
