<svg width="53" height="47" viewBox="0 0 53 47" fill="none" xmlns="http://www.w3.org/2000/svg">
<g clip-path="url(#clip0_2_970)">
<path d="M19.5418 4.01465V9.92882C12.8991 10.8825 7.79181 16.5969 7.79181 23.5001C7.79181 31.071 13.9292 37.2084 21.5001 37.2084C24.5786 37.2084 27.4221 36.194 29.7095 34.4785L33.8944 38.6634C30.5183 41.4247 26.2001 43.0834 21.5001 43.0834C10.6843 43.0834 1.91681 34.3159 1.91681 23.5001C1.91681 13.3461 9.64635 4.99578 19.5418 4.01465ZM40.9856 25.4584C40.5939 29.3966 39.039 32.9921 36.6635 35.8924L32.4786 31.7094C33.8239 29.9156 34.7365 27.781 35.0694 25.4584H40.9875H40.9856ZM23.4624 4.01465C32.7136 4.93311 40.0691 12.2906 40.9895 21.5417H35.0714C34.2136 15.5394 29.4647 10.7905 23.4624 9.93078V4.0127V4.01465Z" fill="white"/>
<path d="M28.5341 19.956L25.8161 30H22.4141L20.8301 23.484L19.1921 30H15.8081L13.0721 19.956H16.1501L17.5721 27.138L19.2641 19.956H22.5221L24.2321 27.102L25.6361 19.956H28.5341Z" fill="#FFA654"/>
</g>
<defs>
<clipPath id="clip0_2_970">
<rect width="52.1087" height="47" fill="white" transform="translate(0.0652466)"/>
</clipPath>
</defs>
</svg>
