<svg width="167" height="316" viewBox="0 0 167 316" fill="none" xmlns="http://www.w3.org/2000/svg">
<path d="M17.9174 112.991C17.9174 109.993 16.347 107.367 13.9854 105.869V104.551H9.45869C4.78742 104.551 1.00002 108.33 1.00002 112.991C1.00002 117.651 4.78742 121.43 9.45869 121.43H13.9854V120.111C16.347 118.614 17.9174 115.988 17.9174 112.991Z" fill="#393939"/>
<path d="M17.9174 112.991C17.9174 109.993 16.347 107.367 13.9854 105.869V104.551H9.45869C4.78742 104.551 1.00002 108.33 1.00002 112.991C1.00002 117.651 4.78742 121.43 9.45869 121.43H13.9854V120.111C16.347 118.614 17.9174 115.988 17.9174 112.991Z" stroke="#393939" stroke-miterlimit="10" stroke-linecap="round" stroke-linejoin="round"/>
<path d="M22.4447 112.991C22.4447 117.651 18.6573 121.43 13.986 121.43C9.3139 121.43 5.52736 117.651 5.52736 112.991C5.52736 108.33 9.3139 104.551 13.986 104.551C18.6573 104.551 22.4447 108.33 22.4447 112.991Z" fill="#717171"/>
<path d="M22.4447 112.991C22.4447 117.651 18.6573 121.43 13.986 121.43C9.3139 121.43 5.52737 117.651 5.52737 112.991C5.52737 108.33 9.3139 104.551 13.986 104.551C18.6573 104.551 22.4447 108.33 22.4447 112.991Z" stroke="#393939" stroke-miterlimit="10" stroke-linecap="round" stroke-linejoin="round"/>
<path d="M82.8246 55.3118C82.8246 55.3118 70.9101 58.4021 68.7658 66.4854C66.6215 74.5678 67.5746 79.56 67.5746 81.6993C67.5746 83.8396 63.524 92.8729 63.524 97.6276C63.524 102.382 63.047 105.235 63.047 105.235C63.047 105.235 60.1885 105.71 56.376 108.087C52.5627 110.465 47.7979 111.178 40.888 112.842C33.9771 114.506 29.6885 114.031 29.6885 114.031C29.6885 114.031 26.353 110.227 25.6379 110.227C24.9229 110.227 18.9661 109.039 18.9661 109.039C18.9661 109.039 15.6297 107.137 14.6766 108.087C13.7243 109.039 12.0561 113.317 12.5322 114.744C13.0092 116.17 19.2041 120.687 23.2547 121.876C27.3061 123.064 33.7391 123.54 38.2666 123.54C42.7933 123.54 47.7979 124.728 58.5203 124.491C69.2428 124.253 78.2971 119.498 78.2971 119.498C78.2971 119.498 84.9689 105.472 83.7777 98.1026C82.5866 90.7336 77.582 76.4697 78.7741 72.4285C79.9652 68.3873 82.8246 55.3118 82.8246 55.3118Z" fill="white"/>
<path d="M82.8246 55.3118C82.8246 55.3118 70.9101 58.4021 68.7658 66.4854C66.6215 74.5678 67.5746 79.56 67.5746 81.6993C67.5746 83.8396 63.524 92.8729 63.524 97.6276C63.524 102.382 63.047 105.235 63.047 105.235C63.047 105.235 60.1885 105.71 56.376 108.087C52.5627 110.465 47.7979 111.178 40.888 112.841C33.9771 114.506 29.6885 114.031 29.6885 114.031C29.6885 114.031 26.353 110.227 25.6379 110.227C24.9229 110.227 18.9661 109.039 18.9661 109.039C18.9661 109.039 15.6297 107.137 14.6766 108.087C13.7243 109.039 12.0561 113.317 12.5322 114.744C13.0092 116.17 19.2041 120.687 23.2547 121.876C27.3061 123.064 33.7391 123.54 38.2666 123.54C42.7933 123.54 47.7979 124.728 58.5203 124.491C69.2428 124.253 78.2971 119.498 78.2971 119.498C78.2971 119.498 84.9689 105.472 83.7777 98.1026C82.5866 90.7336 77.582 76.4697 78.7741 72.4285C79.9652 68.3873 82.8246 55.3118 82.8246 55.3118Z" stroke="#393939" stroke-miterlimit="10" stroke-linecap="round" stroke-linejoin="round"/>
<path d="M63.0474 105.233C63.0474 105.233 68.5281 102.856 70.6724 108.086" stroke="#393939" stroke-miterlimit="10" stroke-linecap="round" stroke-linejoin="round"/>
<path d="M33.9533 113.976L33.7879 123.397C30.088 123.183 26.0911 122.706 23.2551 121.875C19.2045 120.686 13.0096 116.169 12.5326 114.742C12.3119 114.083 12.5525 112.812 12.9672 111.543C15.2388 111.87 21.1549 112.745 23.2551 113.316C25.8755 114.03 27.3056 114.742 27.3056 114.742L29.6889 114.03C29.6889 114.03 31.2359 114.197 33.9533 113.976Z" fill="#393939"/>
<path d="M33.9533 113.976L33.7879 123.397C30.088 123.183 26.0911 122.706 23.2551 121.875C19.2045 120.686 13.0096 116.169 12.5326 114.742C12.3119 114.083 12.5525 112.812 12.9672 111.543C15.2388 111.87 21.1549 112.745 23.2551 113.316C25.8755 114.03 27.3056 114.742 27.3056 114.742L29.6889 114.03C29.6889 114.03 31.2359 114.197 33.9533 113.976Z" stroke="#393939" stroke-miterlimit="10" stroke-linecap="round" stroke-linejoin="round"/>
<path d="M25.6379 110.226C25.6379 110.226 23.4927 111.177 23.2546 113.316L25.6379 110.226Z" fill="white"/>
<path d="M25.6379 110.226C25.6379 110.226 23.4927 111.177 23.2546 113.316" stroke="#393939" stroke-miterlimit="10" stroke-linecap="round" stroke-linejoin="round"/>
<path d="M20.8727 109.751C20.8727 109.751 19.4435 110.702 19.2045 112.366L20.8727 109.751Z" fill="white"/>
<path d="M20.8727 109.751C20.8727 109.751 19.4435 110.702 19.2045 112.366" stroke="#393939" stroke-miterlimit="10" stroke-linecap="round" stroke-linejoin="round"/>
<path d="M18.9662 109.037C18.9662 109.037 15.6298 109.275 15.1537 111.652L18.9662 109.037Z" fill="white"/>
<path d="M18.9662 109.037C18.9662 109.037 15.6298 109.275 15.1537 111.652" stroke="#393939" stroke-miterlimit="10" stroke-linecap="round" stroke-linejoin="round"/>
<path d="M148.664 172.392C148.664 169.394 150.235 166.769 152.596 165.272V163.953H157.122C161.794 163.953 165.581 164.496 165.581 169.157C165.581 173.818 161.794 180.831 157.122 180.831H152.596V179.512C150.235 178.016 148.664 175.39 148.664 172.392Z" fill="#717171"/>
<path d="M148.664 172.392C148.664 169.394 150.235 166.769 152.596 165.272V163.953H157.122C161.794 163.953 165.581 164.496 165.581 169.157C165.581 173.818 161.794 180.831 157.122 180.831H152.596V179.512C150.235 178.016 148.664 175.39 148.664 172.392Z" stroke="#393939" stroke-miterlimit="10" stroke-linecap="round" stroke-linejoin="round"/>
<path d="M144.136 172.392C144.136 177.052 147.924 180.831 152.595 180.831C157.266 180.831 161.054 177.052 161.054 172.392C161.054 167.732 157.266 163.953 152.595 163.953C147.924 163.953 144.136 167.732 144.136 172.392Z" fill="#717171"/>
<path d="M144.136 172.392C144.136 177.052 147.924 180.831 152.595 180.831C157.266 180.831 161.054 177.052 161.054 172.392C161.054 167.732 157.266 163.953 152.595 163.953C147.924 163.953 144.136 167.732 144.136 172.392Z" stroke="#393939" stroke-miterlimit="10" stroke-linecap="round" stroke-linejoin="round"/>
<path d="M76.7866 2.27872C76.7866 2.27872 83.6013 -0.598236 88.3194 2.27872C93.0374 5.15567 98.0168 10.9087 98.8037 14.8307C99.5898 18.7536 99.5517 26.2919 101.387 31.7841C103.221 37.2755 112.847 45.0876 115.944 47.7029C119.043 50.3181 134.054 51.2691 137.866 58.6381C141.679 66.008 140.25 74.3279 140.25 74.3279C140.25 74.3279 147.636 103.807 148.827 107.61C150.019 111.414 154.308 123.063 154.069 129.243C153.831 135.425 154.785 159.673 154.785 160.623C154.785 161.575 155.261 172.034 155.023 174.65C154.785 177.264 155.261 179.641 153.592 179.879C151.924 180.117 147.398 180.831 145.491 180.593C143.585 180.355 142.632 173.698 143.347 169.895C144.061 166.092 146.921 161.337 147.16 155.156C147.398 148.975 140.011 129.957 137.151 122.587C134.292 115.218 134.054 105.471 134.054 105.471L129.765 81.9362C129.765 81.9362 126.906 90.2561 125.477 93.8223C124.046 97.3885 123.57 106.897 125 112.127C126.429 117.357 134.054 132.096 135.722 140.654C137.39 149.213 135.007 175.6 132.863 187.962C130.718 200.324 125.477 213.399 126.906 223.146C128.335 232.892 129.526 243.968 128.812 252.527C128.097 261.085 124.761 276.77 124.761 276.77L122.855 288.992L122.14 296.362C122.14 296.362 114.039 298.264 112.133 295.174C110.226 292.084 113.086 277.959 111.418 270.351C109.75 262.744 105.223 250.484 105.223 241.689C105.223 232.892 106.414 220.769 106.414 220.769C106.414 220.769 102.602 195.807 103.078 189.151C103.555 182.495 101.409 167.042 101.409 167.042L98.789 166.804C98.789 166.804 97.3598 188.438 97.5978 191.052C97.8359 193.668 94.7385 218.629 94.0234 220.769C93.3083 222.908 94.4995 236.123 92.5941 244.443C90.6879 252.764 87.5896 273.679 86.3984 278.196C85.2072 282.714 87.1619 294.616 87.1619 294.616L78.3457 295.567C78.3457 295.567 74.7228 275.819 74.0086 272.967C73.2936 270.114 67.3359 247.394 69.243 238.123C71.1484 228.852 73.0546 217.202 73.0546 216.014C73.0546 214.826 66.1447 189.388 65.9066 176.076C65.6686 162.763 64.7154 149.213 65.1916 143.507C65.6686 137.802 77.8203 107.848 78.2973 105.233C78.7734 102.618 79.2504 97.626 78.7734 95.4858C78.2973 93.3464 72.8166 82.4112 73.7697 75.7547C74.7228 69.0983 79.7265 63.6311 80.4416 61.2533C81.1566 58.8764 82.1089 56.0237 82.1089 56.0237C82.1089 56.0237 87.5896 53.4084 88.0666 52.4575C88.5436 51.5066 88.805 50.6118 88.805 50.6118C88.805 50.6118 85.66 54.0113 83.301 52.7036C80.9419 51.396 72.8174 45.9046 72.8174 45.9046C72.8174 45.9046 68.3609 46.1664 67.8371 44.8587C67.3125 43.5511 70.1961 37.798 67.5748 36.4904C64.9535 35.1837 62.0708 29.6914 61.8084 26.0302C61.8084 26.0302 57.8765 24.4618 58.9257 18.447C59.9741 12.4323 71.0203 5.15567 76.7866 2.27872Z" fill="white"/>
<path d="M76.7866 2.27871C76.7866 2.27871 83.6014 -0.598251 88.3194 2.27871C93.0374 5.15567 98.0168 10.9087 98.8037 14.8307C99.5898 18.7536 99.5517 26.2919 101.387 31.7842C103.221 37.2755 112.847 45.0876 115.944 47.7029C119.043 50.3181 134.054 51.2691 137.866 58.6381C141.679 66.008 140.25 74.3279 140.25 74.3279C140.25 74.3279 147.636 103.807 148.827 107.61C150.019 111.414 154.308 123.063 154.069 129.243C153.831 135.425 154.785 159.673 154.785 160.623C154.785 161.575 155.261 172.034 155.023 174.65C154.785 177.264 155.261 179.641 153.592 179.879C151.924 180.117 147.398 180.831 145.491 180.593C143.585 180.355 142.632 173.698 143.347 169.895C144.061 166.092 146.921 161.337 147.16 155.156C147.398 148.975 140.011 129.957 137.151 122.587C134.292 115.218 134.054 105.471 134.054 105.471L129.765 81.9362C129.765 81.9362 126.906 90.2561 125.477 93.8223C124.046 97.3885 123.57 106.897 125 112.127C126.429 117.357 134.054 132.096 135.722 140.654C137.39 149.213 135.007 175.6 132.863 187.962C130.718 200.324 125.477 213.399 126.906 223.146C128.335 232.892 129.526 243.968 128.812 252.527C128.097 261.085 124.761 276.77 124.761 276.77L122.855 288.992L122.14 296.362C122.14 296.362 114.039 298.264 112.133 295.174C110.226 292.084 113.086 277.959 111.418 270.351C109.75 262.744 105.223 250.484 105.223 241.689C105.223 232.892 106.414 220.769 106.414 220.769C106.414 220.769 102.602 195.807 103.078 189.151C103.555 182.495 101.409 167.042 101.409 167.042L98.789 166.804C98.789 166.804 97.3598 188.438 97.5978 191.052C97.8359 193.668 94.7385 218.629 94.0234 220.769C93.3083 222.908 94.4995 236.123 92.5941 244.443C90.6879 252.764 87.5896 273.679 86.3984 278.196C85.2072 282.714 87.1619 294.616 87.1619 294.616L78.3457 295.567C78.3457 295.567 74.7228 275.819 74.0086 272.967C73.2936 270.114 67.3359 247.394 69.243 238.123C71.1484 228.852 73.0546 217.202 73.0546 216.014C73.0546 214.826 66.1447 189.388 65.9066 176.076C65.6686 162.763 64.7154 149.213 65.1916 143.507C65.6686 137.802 77.8203 107.848 78.2973 105.233C78.7734 102.618 79.2504 97.626 78.7734 95.4858C78.2973 93.3464 72.8166 82.4112 73.7697 75.7547C74.7228 69.0982 79.7265 63.6311 80.4416 61.2533C81.1566 58.8764 82.1089 56.0237 82.1089 56.0237C82.1089 56.0237 87.5896 53.4084 88.0666 52.4575C88.5436 51.5066 88.805 50.6118 88.805 50.6118C88.805 50.6118 85.66 54.0113 83.301 52.7036C80.9419 51.396 72.8174 45.9047 72.8174 45.9047C72.8174 45.9047 68.3609 46.1664 67.8371 44.8587C67.3125 43.5511 70.1961 37.798 67.5748 36.4904C64.9535 35.1836 62.0708 29.6914 61.8085 26.0302C61.8085 26.0302 57.8765 24.4618 58.9257 18.447C59.9741 12.4323 71.0203 5.15567 76.7866 2.27871Z" stroke="#393939" stroke-miterlimit="10" stroke-linecap="round" stroke-linejoin="round"/>
<path d="M98.4646 117.122C98.4646 117.732 98.9598 118.226 99.5709 118.226C100.183 118.226 100.678 117.732 100.678 117.122C100.678 116.512 100.183 116.018 99.5709 116.018C98.9598 116.018 98.4646 116.512 98.4646 117.122Z" stroke="#393939" stroke-miterlimit="10" stroke-linecap="round" stroke-linejoin="round"/>
<path d="M88.8057 50.6123L93.786 39.6296L94.7392 52.458L88.8057 50.6123Z" fill="#393939"/>
<path d="M88.8057 50.6123L93.786 39.6296L94.7392 52.458L88.8057 50.6123Z" stroke="#393939" stroke-miterlimit="10" stroke-linecap="round" stroke-linejoin="round"/>
<path d="M61.8085 26.0315C61.8085 26.0315 57.3302 25.8388 56.9892 30.6133" stroke="#393939" stroke-miterlimit="10" stroke-linecap="round" stroke-linejoin="round"/>
<path d="M58.9255 18.4482C59.9738 12.4335 71.0201 5.156 76.7864 2.2799C76.7864 2.2799 83.6011 -0.597054 88.3191 2.2799C93.0372 5.156 124.489 29.3023 125.275 33.2252C125.939 36.5375 121.917 40.765 108.481 45.7916C108.481 67.4163 96.1744 27.6854 94.3097 26.0314C91.9507 23.9396 89.3294 20.2784 88.5434 22.1094C87.7573 23.9396 82.777 28.9084 79.8934 24.9855C77.0106 21.0635 74.3893 20.5401 71.2443 22.8936C68.0992 25.2472 61.8082 26.0314 61.8082 26.0314C61.8082 26.0314 57.8771 24.463 58.9255 18.4482Z" fill="#393939"/>
<path d="M58.9256 18.4476C59.974 12.4328 71.0202 5.15538 76.7866 2.27928C76.7866 2.27928 83.6013 -0.597678 88.3193 2.27928C93.0373 5.15538 98.0176 10.9084 98.8037 14.8313C99.4677 18.1436 98.6245 24.4718 100.443 29.1928C98.6929 29.9805 96.1746 27.6848 94.3099 26.0308C91.9509 23.939 89.3296 20.2778 88.5435 22.1088C87.7575 23.939 82.7772 28.9078 79.8935 24.9849C77.0108 21.0629 74.3895 20.5395 71.2444 22.893C68.0994 25.2466 61.8084 26.0308 61.8084 26.0308C61.8084 26.0308 57.8773 24.4623 58.9256 18.4476V18.4476Z" stroke="#393939" stroke-miterlimit="10" stroke-linecap="round" stroke-linejoin="round"/>
<path d="M87.233 25.5087C87.233 25.5087 88.2813 18.448 92.2124 19.7557C96.1444 21.0633 96.6681 29.6925 93.7854 29.9542L91.165 30.2159" fill="white"/>
<path d="M87.233 25.5087C87.233 25.5087 88.2813 18.448 92.2124 19.7557C96.1444 21.0633 96.6681 29.6925 93.7854 29.9542L91.165 30.2159" stroke="#393939" stroke-miterlimit="10" stroke-linecap="round" stroke-linejoin="round"/>
<path d="M81.4664 41.4598C81.4664 41.4598 81.4664 45.121 78.059 46.1669" stroke="#393939" stroke-miterlimit="10" stroke-linecap="round" stroke-linejoin="round"/>
<path d="M77.2727 35.1844C77.2727 35.1844 76.4866 37.7988 73.603 37.7988" stroke="#393939" stroke-miterlimit="10" stroke-linecap="round" stroke-linejoin="round"/>
<path d="M69.934 35.1846C69.934 35.1846 73.079 32.0468 76.4864 31.7851" stroke="#393939" stroke-miterlimit="10" stroke-linecap="round" stroke-linejoin="round"/>
<path d="M118.805 49.1304C118.805 49.1304 120.234 55.0735 124.046 64.1068C127.859 73.1411 130.242 77.1823 130.242 83.8388C130.242 90.4952 123.808 97.6267 123.808 97.6267C123.808 97.6267 104.985 95.7249 96.8827 95.9624C88.7815 96.2008 79.7264 97.8643 79.7264 97.8643C79.7264 97.8643 73.7704 89.3068 73.0554 81.2235C72.3403 73.1411 76.1528 66.4846 77.5821 63.3943C79.0122 60.304 82.1096 56.0244 82.1096 56.0244L84.969 54.836C84.969 54.836 84.4929 61.0166 86.3983 65.2961C88.3054 69.5749 93.3091 75.7563 101.172 74.092C109.035 72.4277 115.945 64.5827 116.183 59.3522C116.422 54.1226 115.945 47.7045 115.945 47.7045L118.805 49.1304Z" fill="black"/>
<path d="M118.805 49.1306C118.805 49.1306 120.234 55.0737 124.046 64.107C127.859 73.1412 130.242 77.1824 130.242 83.8389C122.756 109.462 128.634 122.866 128.634 122.866C128.634 122.866 106.507 126.817 98.4051 127.055C90.304 127.293 72.3744 120.352 72.3744 120.352C72.3744 120.352 76.5729 102.759 73.0555 81.2237C72.3404 73.1412 76.1529 66.4848 77.5822 63.3945C79.0123 60.3042 82.1097 56.0246 82.1097 56.0246L84.9691 54.8361C84.9691 54.8361 84.493 61.0167 86.3984 65.2963C88.3055 69.575 93.3092 75.7565 101.172 74.0922C109.035 72.4278 115.945 64.5829 116.183 59.3524C116.422 54.1227 115.945 47.7046 115.945 47.7046L118.805 49.1306Z" fill="#FEE6D0" fill-opacity="0.4" stroke="#393939" stroke-miterlimit="10" stroke-linecap="round" stroke-linejoin="round"/>
<path d="M110.226 54.1219L100.457 56.7363" stroke="#393939" stroke-miterlimit="10" stroke-linecap="round" stroke-linejoin="round"/>
<path d="M93.7855 56.5L86.8755 55.7856" stroke="#393939" stroke-miterlimit="10" stroke-linecap="round" stroke-linejoin="round"/>
<path d="M65.1921 143.507C65.3765 141.292 67.3243 135.418 69.6625 128.911C76.7092 131.642 89.3916 135.755 100.219 134.949C112.815 134.011 126.589 130.412 131.845 128.933C133.557 133.16 135.08 137.364 135.723 140.654C136.878 146.583 134.782 274.048 134.782 274.048C134.782 274.048 132.454 274.469 130.957 274.705C119.941 276.446 102.444 276.34 102.444 276.34L101.41 167.042L98.7895 166.804C98.7895 166.804 98.5143 271.502 98.2251 276.399C94.6394 276.428 87.1979 276.407 79.489 275.894C74.4368 275.558 69.5586 273.744 65.7963 271.92C65.4639 260.22 64.7713 148.542 65.1921 143.507Z" fill="purple"/>
<path d="M65.1921 143.507C65.3765 141.292 67.3243 135.418 69.6625 128.911C76.7092 131.642 89.3916 135.755 100.219 134.949C112.815 134.011 126.589 130.412 131.845 128.933C133.557 133.16 135.08 137.364 135.723 140.654C136.878 146.583 134.782 274.048 134.782 274.048L130.957 274.705L102.444 276.34L101.41 167.042L98.7895 166.804C98.7895 166.804 98.5143 271.502 98.2251 276.399C94.6394 276.428 87.1979 276.407 79.489 275.894C74.4368 275.558 69.5586 273.744 65.7963 271.92C65.4639 260.22 64.7713 148.542 65.1921 143.507Z" stroke="#393939" stroke-miterlimit="10" stroke-linecap="round" stroke-linejoin="round"/>
<path d="M99.7869 76.5234C89.6614 76.7275 74.7639 69.0417 74.7639 69.0417C74.7639 67.9108 78.4517 59.034 80.5993 55.7355L86.0956 53.9053C86.0956 66.3453 96.0285 70.3977 101.398 70.1621C114.284 66.628 117.491 54.4319 115.612 47.835L119.363 49.0824L123.948 63.8007C123.948 63.8007 110.788 76.3016 99.7869 76.5234Z" fill="purple" stroke="#393939"/>
<path d="M143.823 102.619C143.823 102.619 141.917 108.799 140.011 109.275C138.105 109.75 135.96 107.373 134.769 104.52" stroke="#393939" stroke-miterlimit="10" stroke-linecap="round" stroke-linejoin="round"/>
<path d="M40.1455 116.751C40.1455 113.754 38.5751 111.128 36.2135 109.631V108.312H31.6868C27.0156 108.312 23.2282 112.091 23.2282 116.751C23.2282 121.413 27.0156 125.19 31.6868 125.19H36.2135V123.872C38.5751 122.375 40.1455 119.749 40.1455 116.751Z" fill="#393939"/>
<path d="M40.1455 116.751C40.1455 113.754 38.5751 111.128 36.2135 109.631V108.312H31.6868C27.0156 108.312 23.2282 112.091 23.2282 116.751C23.2282 121.413 27.0156 125.19 31.6868 125.19H36.2135V123.872C38.5751 122.375 40.1455 119.749 40.1455 116.751Z" stroke="#393939" stroke-miterlimit="10" stroke-linecap="round" stroke-linejoin="round"/>
<path d="M44.6727 116.751C44.6727 121.412 40.8853 125.19 36.2141 125.19C31.5428 125.19 27.7554 121.412 27.7554 116.751C27.7554 112.091 31.5428 108.312 36.2141 108.312C40.8853 108.312 44.6727 112.091 44.6727 116.751Z" fill="#717171"/>
<path d="M44.6727 116.751C44.6727 121.412 40.8853 125.19 36.2141 125.19C31.5428 125.19 27.7554 121.412 27.7554 116.751C27.7554 112.091 31.5428 108.312 36.2141 108.312C40.8853 108.312 44.6727 112.091 44.6727 116.751Z" stroke="#393939" stroke-miterlimit="10" stroke-linecap="round" stroke-linejoin="round"/>
<path d="M153.593 179.879C151.925 180.117 147.398 180.831 145.491 180.593C143.585 180.355 142.632 173.699 143.347 169.895C143.672 168.171 144.436 166.239 145.197 164.081C148.404 165.094 152.447 164.746 154.908 164.367C155.03 167.931 155.178 172.947 155.023 174.65C154.784 177.265 155.261 179.642 153.593 179.879Z" fill="#393939"/>
<path d="M153.593 179.879C151.925 180.117 147.398 180.831 145.491 180.593C143.585 180.355 142.632 173.699 143.347 169.895C143.672 168.171 144.436 166.239 145.197 164.081C148.404 165.094 152.447 164.746 154.908 164.367C155.03 167.931 155.178 172.947 155.023 174.65C154.784 177.265 155.261 179.642 153.593 179.879Z" stroke="#393939" stroke-miterlimit="10" stroke-linecap="round" stroke-linejoin="round"/>
<path d="M123.258 294.634C123.258 294.634 126.273 287.185 124.838 286.468C123.402 285.752 116.366 285.465 115.36 286.898C114.355 288.331 114.498 292.629 114.498 292.629C114.498 292.629 109.473 290.766 109.042 292.629C108.612 294.491 109.617 296.211 109.617 296.211C109.617 296.211 109.186 306.669 109.76 307.673C110.334 308.675 113.063 309.535 113.063 309.535C113.063 309.535 115.792 311.683 118.663 313.116C121.535 314.549 125.986 315.122 129.146 314.979C132.305 314.835 137.905 314.406 137.761 311.97C137.618 309.535 137.187 306.24 134.315 304.09C131.443 301.941 123.258 294.634 123.258 294.634Z" fill="white"/>
<path d="M123.258 294.634C123.258 294.634 126.273 287.185 124.838 286.468C123.402 285.752 116.366 285.465 115.36 286.898C114.355 288.331 114.498 292.629 114.498 292.629C114.498 292.629 109.473 290.766 109.042 292.629C108.612 294.491 109.617 296.211 109.617 296.211C109.617 296.211 109.186 306.669 109.76 307.673C110.334 308.675 113.063 309.535 113.063 309.535C113.063 309.535 115.792 311.683 118.663 313.116C121.535 314.549 125.986 315.122 129.146 314.979C132.305 314.835 137.905 314.406 137.761 311.97C137.618 309.535 137.187 306.24 134.315 304.09C131.443 301.941 123.258 294.634 123.258 294.634Z" stroke="#393939" stroke-miterlimit="10" stroke-linecap="round" stroke-linejoin="round"/>
<path d="M114.499 306.812C117.084 308.389 118.95 311.541 126.992 312.114C132.597 312.514 136.033 311.174 137.605 310.325C137.681 310.897 137.731 311.456 137.762 311.97C137.905 314.406 132.305 314.835 129.145 314.979C125.987 315.122 121.535 314.549 118.664 313.116C115.791 311.684 113.063 309.535 113.063 309.535C113.063 309.535 110.334 308.675 109.76 307.672C109.584 307.365 109.503 306.166 109.474 304.656C110.954 305.141 113.011 305.905 114.499 306.812Z" fill="black"/>
<path d="M114.499 306.812C117.084 308.389 118.95 311.541 126.992 312.114C132.597 312.514 136.033 311.174 137.605 310.325C137.681 310.897 137.731 311.456 137.762 311.97C137.905 314.406 132.305 314.835 129.145 314.979C125.987 315.122 121.535 314.549 118.664 313.116C115.791 311.684 113.063 309.535 113.063 309.535C113.063 309.535 110.334 308.675 109.76 307.672C109.584 307.365 109.503 306.166 109.474 304.656C110.954 305.141 113.011 305.905 114.499 306.812Z" stroke="#393939" stroke-width="0.5" stroke-miterlimit="10" stroke-linecap="round" stroke-linejoin="round"/>
<path d="M122.54 294.634L116.796 294.921C116.796 294.921 117.37 298.216 120.243 299.792C123.115 301.368 125.555 300.651 125.125 298.503C124.694 296.354 122.54 294.634 122.54 294.634Z" fill="white"/>
<path d="M122.54 294.634L116.796 294.921C116.796 294.921 117.37 298.216 120.243 299.792C123.115 301.368 125.555 300.651 125.125 298.503C124.694 296.354 122.54 294.634 122.54 294.634Z" stroke="#393939" stroke-miterlimit="10" stroke-linecap="round" stroke-linejoin="round"/>
<path d="M76.014 294.634C76.014 294.634 72.9988 287.185 74.4342 286.468C75.8703 285.752 82.9067 285.465 83.9117 286.898C84.9168 288.331 84.774 292.629 84.774 292.629C84.774 292.629 89.7993 290.766 90.2304 292.629C90.6607 294.491 89.6556 296.211 89.6556 296.211C89.6556 296.211 90.0867 306.669 89.5119 307.673C88.938 308.675 86.2093 309.535 86.2093 309.535C86.2093 309.535 83.4806 311.683 80.6091 313.116C77.7368 314.549 73.2854 315.122 70.1265 314.979C66.9676 314.835 61.3674 314.406 61.5103 311.97C61.654 309.535 62.0851 306.24 64.9574 304.09C67.8289 301.941 76.014 294.634 76.014 294.634Z" fill="white"/>
<path d="M76.014 294.634C76.014 294.634 72.9988 287.185 74.4342 286.468C75.8703 285.752 82.9067 285.465 83.9117 286.898C84.9168 288.331 84.774 292.629 84.774 292.629C84.774 292.629 89.7993 290.766 90.2304 292.629C90.6607 294.491 89.6556 296.211 89.6556 296.211C89.6556 296.211 90.0867 306.669 89.5119 307.673C88.938 308.675 86.2093 309.535 86.2093 309.535C86.2093 309.535 83.4806 311.683 80.6091 313.116C77.7368 314.549 73.2854 315.122 70.1265 314.979C66.9676 314.835 61.3674 314.406 61.5103 311.97C61.654 309.535 62.0851 306.24 64.9574 304.09C67.8289 301.941 76.014 294.634 76.014 294.634Z" stroke="#393939" stroke-miterlimit="10" stroke-linecap="round" stroke-linejoin="round"/>
<path d="M84.7737 306.812C82.1888 308.389 80.3215 311.541 72.2801 312.114C66.6756 312.514 63.2388 311.174 61.6676 310.325C61.5914 310.897 61.5412 311.456 61.51 311.97C61.3663 314.406 66.9673 314.835 70.1262 314.979C73.2851 315.122 77.7374 314.549 80.6089 313.116C83.4812 311.684 86.2099 309.535 86.2099 309.535C86.2099 309.535 88.9386 308.675 89.5125 307.672C89.6882 307.365 89.7696 306.166 89.7982 304.656C88.3179 305.141 86.2618 305.905 84.7737 306.812Z" stroke="#393939" stroke-miterlimit="10" stroke-linecap="round" stroke-linejoin="round"/>
<path d="M84.7737 306.812C82.1888 308.389 80.3215 311.541 72.2801 312.114C66.6756 312.514 63.2388 311.174 61.6676 310.325C61.5914 310.897 61.5412 311.456 61.51 311.97C61.3663 314.406 66.9673 314.835 70.1262 314.979C73.2851 315.122 77.7374 314.549 80.6089 313.116C83.4812 311.684 86.2099 309.535 86.2099 309.535C86.2099 309.535 88.9386 308.675 89.5125 307.672C89.6882 307.365 89.7696 306.166 89.7982 304.656C88.3179 305.141 86.2618 305.905 84.7737 306.812Z" fill="black"/>
<path d="M76.7319 294.634L82.4758 294.921C82.4758 294.921 81.9018 298.216 79.0295 299.792C76.1571 301.368 73.7167 300.651 74.1478 298.503C74.5781 296.354 76.7319 294.634 76.7319 294.634Z" stroke="#393939" stroke-miterlimit="10" stroke-linecap="round" stroke-linejoin="round"/>
<path d="M76.7319 294.634L82.4758 294.921C82.4758 294.921 81.9018 298.216 79.0295 299.792C76.1571 301.368 73.7167 300.651 74.1478 298.503C74.5781 296.354 76.7319 294.634 76.7319 294.634Z" stroke="#393939" stroke-miterlimit="10" stroke-linecap="round" stroke-linejoin="round"/>
<path d="M132.148 172.392C132.148 169.394 133.719 166.769 136.08 165.272V163.953H140.607C145.279 163.953 149.065 167.732 149.065 172.392C149.065 177.052 145.279 180.831 140.607 180.831H136.08V179.512C133.719 178.016 132.148 175.39 132.148 172.392Z" fill="#717171"/>
<path d="M132.148 172.392C132.148 169.394 133.719 166.769 136.08 165.272V163.953H140.607C145.279 163.953 149.065 167.732 149.065 172.392C149.065 177.052 145.279 180.831 140.607 180.831H136.08V179.512C133.719 178.016 132.148 175.39 132.148 172.392Z" stroke="#393939" stroke-miterlimit="10" stroke-linecap="round" stroke-linejoin="round"/>
<path d="M127.621 172.392C127.621 177.052 131.408 180.831 136.079 180.831C140.751 180.831 144.538 177.052 144.538 172.392C144.538 167.732 140.751 163.953 136.079 163.953C131.408 163.953 127.621 167.732 127.621 172.392Z" fill="#393939"/>
<path d="M127.621 172.392C127.621 177.052 131.408 180.831 136.079 180.831C140.751 180.831 144.538 177.052 144.538 172.392C144.538 167.732 140.751 163.953 136.079 163.953C131.408 163.953 127.621 167.732 127.621 172.392Z" stroke="#393939" stroke-miterlimit="10" stroke-linecap="round" stroke-linejoin="round"/>
</svg>
