<svg width="29" height="30" viewBox="0 0 29 30" fill="none" xmlns="http://www.w3.org/2000/svg">
<path d="M17.1875 27L14.0625 30L10.9375 27H3.11719C2.29046 27 1.49759 26.6847 0.913003 26.1235C0.328417 25.5623 0 24.8012 0 24.0075V2.9925C0 1.3395 1.39531 0 3.11719 0H25.0078C26.7297 0 28.125 1.3395 28.125 2.9925V24.0075C28.125 24.8012 27.7966 25.5623 27.212 26.1235C26.6274 26.6847 25.8345 27 25.0078 27H17.1875ZM25 24V3H3.125V24H12.2312L14.0625 25.758L15.8938 24H25ZM7.76875 22.77C6.80779 22.3704 5.89118 21.8789 5.03281 21.303C6.02385 19.8285 7.38432 18.6163 8.98968 17.7772C10.595 16.9381 12.394 16.4989 14.2219 16.5C17.9719 16.5 21.2797 18.3105 23.25 21.0705C22.4081 21.6684 21.5056 22.1835 20.5562 22.608C19.8327 21.645 18.8809 20.8609 17.7795 20.3206C16.6782 19.7802 15.4588 19.4989 14.2219 19.5C11.5422 19.5 9.175 20.796 7.76875 22.77ZM14.0625 15C13.3443 15 12.6332 14.8642 11.9697 14.6004C11.3062 14.3365 10.7033 13.9498 10.1955 13.4623C9.68769 12.9748 9.28486 12.396 9.01003 11.7591C8.7352 11.1221 8.59375 10.4394 8.59375 9.75C8.59375 9.06056 8.7352 8.37787 9.01003 7.74091C9.28486 7.10395 9.68769 6.5252 10.1955 6.03769C10.7033 5.55018 11.3062 5.16347 11.9697 4.89963C12.6332 4.6358 13.3443 4.5 14.0625 4.5C15.5129 4.5 16.9039 5.05312 17.9295 6.03769C18.9551 7.02226 19.5312 8.35761 19.5312 9.75C19.5312 11.1424 18.9551 12.4777 17.9295 13.4623C16.9039 14.4469 15.5129 15 14.0625 15ZM14.0625 12C14.6841 12 15.2802 11.7629 15.7198 11.341C16.1593 10.919 16.4062 10.3467 16.4062 9.75C16.4062 9.15326 16.1593 8.58097 15.7198 8.15901C15.2802 7.73705 14.6841 7.5 14.0625 7.5C13.4409 7.5 12.8448 7.73705 12.4052 8.15901C11.9657 8.58097 11.7188 9.15326 11.7188 9.75C11.7188 10.3467 11.9657 10.919 12.4052 11.341C12.8448 11.7629 13.4409 12 14.0625 12Z" fill="white"/>
</svg>
