<svg width="34" height="30" viewBox="0 0 34 30" fill="none" xmlns="http://www.w3.org/2000/svg">
<g clip-path="url(#clip0_2_967)">
<path d="M11.9999 27.5C18.9037 27.5 24.4999 21.9038 24.4999 15C24.4999 8.09625 18.9037 2.5 11.9999 2.5C10.0591 2.49855 8.1447 2.94972 6.40878 3.81768C4.67286 4.68564 3.16327 5.94647 1.99994 7.5H5.38744C6.8309 6.2272 8.61097 5.39795 10.514 5.11175C12.4171 4.82556 14.3624 5.09457 16.1163 5.88652C17.8703 6.67847 19.3585 7.9597 20.4024 9.57649C21.4462 11.1933 22.0014 13.0769 22.0012 15.0014C22.001 16.9259 21.4456 18.8094 20.4014 20.426C19.3573 22.0426 17.8689 23.3236 16.1148 24.1153C14.3607 24.9069 12.4154 25.1756 10.5124 24.8891C8.60937 24.6026 6.82944 23.773 5.38619 22.5H1.99869C3.16214 24.0537 4.67193 25.3146 6.40809 26.1826C8.14424 27.0506 10.0589 27.5017 11.9999 27.5ZM3.24994 20V16.25H13.2499V13.75H3.24994V10L-3.00006 15L3.24994 20Z" fill="white"/>
</g>
<defs>
<clipPath id="clip0_2_967">
<rect width="33.2609" height="30" fill="white" transform="matrix(-1 0 0 1 33.413 0)"/>
</clipPath>
</defs>
</svg>
