<svg width="140" height="140" viewBox="0 0 140 140" fill="none" xmlns="http://www.w3.org/2000/svg">
<g opacity="0.4">
<path d="M135.334 132.609V122.498C135.342 117.786 132.507 113.533 128.154 111.728L106.981 102.905L101.517 81.0591L136.983 45.5922L133.684 42.2927L121.334 54.6429L94.3001 27.6092L118.317 3.59243L115.017 0.292969L75.8341 39.4763L64.0136 27.6559L82.1971 9.47244L78.8954 6.17298L33.4447 51.626L5.44484 79.6258L2.05195 83.0255C0.664266 84.4132 -0.0785677 86.3193 0.00688093 88.2789C0.0911903 90.2397 0.994668 92.0751 2.49743 93.3363L52.0337 134.942L53.6675 139.609H60.7142H84.0007H91.0006H124.396L134.904 134.942C135.18 134.194 135.326 133.406 135.334 132.609ZM104.102 106.763L126.357 116.042C128.967 117.124 130.668 119.673 130.667 122.498V125.609H94.1782L55.5622 93.4275C58.5164 85.1424 57.8283 75.9925 53.6675 68.2418L65.3341 56.5752L70.0213 61.2635C70.5647 73.7481 80.8368 83.5952 93.334 83.6089H97.3443L98.511 88.2755H84.0007V92.9421H99.6777L100.844 97.6088H86.334V102.275H102.011L102.737 105.176C102.916 105.89 103.421 106.479 104.102 106.763ZM50.2279 71.6814C52.9577 77.4839 53.4966 84.0783 51.7444 90.2477L40.7898 81.1195L50.2279 71.6814ZM118.034 57.9424L97.0345 78.9422H93.334C83.0288 78.9308 74.6788 70.5808 74.6674 60.2757C74.6674 59.657 74.4213 59.0634 73.9838 58.6259L68.6336 53.2757L91.0006 30.9087L118.034 57.9424ZM72.5346 42.7758L46.4967 68.8137C45.1306 66.175 44.4208 63.247 44.4277 60.2757C44.4265 59.657 44.1816 59.0634 43.7441 58.6259L38.3927 53.2757L60.7142 30.9554L72.5346 42.7758ZM21.5115 90.2477L10.5456 81.1149L19.9836 71.6768C22.7191 77.4793 23.2626 84.076 21.5115 90.2477ZM5.50066 89.7646C4.99936 89.3442 4.69858 88.7324 4.6701 88.0784C4.64162 87.4256 4.88885 86.7898 5.35141 86.3273L7.24381 84.4326L61.6006 129.734C62.0198 130.084 62.5496 130.276 63.0965 130.275H67.6674V125.609H63.9453L25.3316 93.4298C28.287 85.139 27.5977 75.9857 23.4346 68.2304L35.1012 56.5638L39.7884 61.2509C39.957 65.12 41.1009 68.8843 43.114 72.1918L35.6914 79.6144L32.2848 83.0255C30.896 84.4121 30.1543 86.3182 30.2386 88.2789C30.3229 90.2397 31.2253 92.074 32.728 93.3363L82.2598 134.942H59.2855L5.50066 89.7646ZM89.5161 134.942L35.7313 89.7646C35.2288 89.3442 34.9281 88.7312 34.903 88.0773C34.8699 87.4233 35.1172 86.7876 35.5843 86.3273L37.479 84.4326L91.8449 129.734C92.263 130.083 92.7894 130.274 93.334 130.275H130.667V132.609C130.667 137.995 94.4332 134.942 89.5161 134.942Z" fill="black"/>
<path d="M84.7888 40.4229L107.465 64.0848" stroke="purple" stroke-width="7"/>
<path d="M56.1973 39.4365L66.0564 49.2957" stroke="purple" stroke-width="7"/>
</g>
</svg>
