<svg width="288" height="305" viewBox="0 0 288 305" fill="none" xmlns="http://www.w3.org/2000/svg">
<path d="M141.536 41.9333C141.536 41.9333 146.934 39.1544 156.95 37.3676C166.967 35.5812 188.141 44.5674 187.683 53.4736C187.226 62.3784 177.473 61.7058 183.058 65.2891C188.644 68.8733 195.934 64.68 197.272 75.3951C198.61 86.1109 188.588 100.706 177.153 95.9983C165.719 91.2895 159.04 67.7657 153.187 62.0387C147.335 56.3121 138.645 60.7766 134.421 56.095C130.197 51.4134 132.652 47.0751 141.536 41.9333Z" fill="#393939"/>
<path d="M247.89 19.1815C247.89 19.1815 249.988 17.4478 251.118 17.4478C252.249 17.4478 252.733 18.866 254.347 20.127C255.961 21.3879 258.383 22.0188 256.929 22.6497C255.477 23.2798 253.54 22.9643 252.249 21.8607C250.957 20.7579 250.957 21.3879 249.988 21.5461L249.02 21.7034L247.89 19.1815Z" stroke="#393939" stroke-miterlimit="10" stroke-linecap="round" stroke-linejoin="round"/>
<path d="M250.473 22.8083C250.473 22.8083 254.831 22.0201 255.154 23.281C255.477 24.542 255.154 25.4875 254.347 26.1184C253.539 26.7493 252.087 26.4338 252.087 26.4338L250.473 22.8083Z" stroke="#393939" stroke-miterlimit="10" stroke-linecap="round" stroke-linejoin="round"/>
<path d="M255.477 24.2259C255.477 24.2259 257.898 25.1714 257.253 26.9051C256.606 28.6396 253.862 28.9551 253.862 28.9551L252.894 26.9051C252.894 26.9051 254.508 26.275 255.477 24.2259V24.2259Z" stroke="#393939" stroke-miterlimit="10" stroke-linecap="round" stroke-linejoin="round"/>
<path d="M257.091 27.5355C257.091 27.5355 257.737 28.6392 257.414 29.5847C257.091 30.531 255.154 31.3192 255.154 31.3192L253.863 28.9546C253.863 28.9546 256.929 28.1664 257.091 27.5355V27.5355Z" stroke="#393939" stroke-miterlimit="10" stroke-linecap="round" stroke-linejoin="round"/>
<path d="M257.414 29.5854C257.414 29.5854 258.544 30.2163 258.06 31.1618C257.575 32.1073 256.122 32.2646 256.122 32.2646L255.154 31.3191C255.154 31.3191 257.252 30.2163 257.414 29.5854V29.5854Z" stroke="#393939" stroke-miterlimit="10" stroke-linecap="round" stroke-linejoin="round"/>
<path d="M142.574 90.6587C142.574 90.6587 153.358 82.9162 157.782 80.4273C162.207 77.9392 172.161 76.2799 172.161 76.2799L197.324 57.7537C197.324 57.7537 212.256 46.6935 219.721 42.5452C227.187 38.3979 239.906 29.8257 239.906 29.8257L247.096 19.5952L255.115 33.42L241.565 36.462C241.565 36.462 216.403 58.8599 210.043 64.6665C203.683 70.4732 198.983 72.4082 198.983 72.4082C198.983 72.4082 186.54 84.852 181.286 88.9994C176.033 93.1468 173.544 94.253 173.544 94.253C173.544 94.253 174.096 106.144 175.203 110.568C176.309 114.992 177.968 118.586 180.456 119.415C182.945 120.245 183.774 120.245 183.774 120.245C183.774 120.245 185.434 136.56 179.904 145.408C174.374 154.256 162.207 153.981 158.889 153.981C155.57 153.981 148.105 144.026 148.105 144.026C148.105 144.026 140.362 140.984 137.32 138.219C134.278 135.454 129.181 123.482 129.181 123.482C129.181 123.482 120.73 125.775 111.605 125.775C102.48 125.775 89.7608 121.075 89.7608 121.075C89.7608 121.075 72.34 121.075 64.0453 118.586C55.7496 116.098 34.1814 108.632 34.1814 108.632C34.1814 108.632 26.4389 110.844 20.3557 110.568C14.2725 110.291 9.01895 109.738 7.35966 108.908C5.70038 108.079 5.14813 106.419 5.14813 106.419C5.14813 106.419 4.04109 106.419 3.48885 105.59C2.93575 104.761 2.38179 103.655 2.38179 103.655C2.38179 103.655 0.999908 103.655 0.999908 102.549C0.999908 101.442 5.14813 99.7839 5.14813 99.7839C5.14813 99.7839 0.446793 98.1246 2.38179 97.5715C4.31763 97.0184 20.6331 96.7419 20.6331 96.7419C20.6331 96.7419 21.1854 95.3591 18.9738 94.8061C16.7606 94.253 13.1663 91.7649 14.8256 91.4875L16.4849 91.2118C16.4849 91.2118 19.2504 92.5945 21.4619 92.8702C23.6735 93.1468 25.0562 93.9764 26.1633 94.8061C27.2686 95.6357 33.0753 101.442 33.0753 101.442C33.0753 101.442 40.2646 103.378 51.6023 103.655C62.939 103.931 66.8099 103.655 73.9993 105.037C81.1887 106.419 88.6546 108.079 88.6546 108.079L108.287 109.185C108.287 109.185 116.029 108.908 117.964 108.355C119.899 107.802 123.772 106.696 128.748 101.719C133.726 96.7419 140.639 91.7649 140.639 91.7649L142.574 90.6587Z" fill="white"/>
<path d="M142.574 90.6587C142.574 90.6587 153.358 82.9162 157.782 80.4273C162.207 77.9392 172.161 76.2799 172.161 76.2799L197.324 57.7537C197.324 57.7537 212.256 46.6935 219.721 42.5452C227.187 38.3979 239.906 29.8257 239.906 29.8257L247.096 19.5952L255.115 33.42L241.565 36.462C241.565 36.462 216.403 58.8599 210.043 64.6666C203.683 70.4732 198.983 72.4082 198.983 72.4082C198.983 72.4082 186.54 84.852 181.286 88.9994C176.033 93.1468 173.544 94.253 173.544 94.253C173.544 94.253 174.096 106.144 175.203 110.568C176.309 114.992 177.968 118.586 180.456 119.415C182.945 120.245 183.774 120.245 183.774 120.245C183.774 120.245 185.434 136.56 179.904 145.408C174.374 154.256 162.207 153.981 158.889 153.981C155.57 153.981 148.105 144.026 148.105 144.026C148.105 144.026 140.362 140.984 137.32 138.219C134.278 135.454 129.181 123.482 129.181 123.482C129.181 123.482 120.73 125.775 111.605 125.775C102.48 125.775 89.7608 121.075 89.7608 121.075C89.7608 121.075 72.34 121.075 64.0453 118.586C55.7497 116.098 34.1814 108.632 34.1814 108.632C34.1814 108.632 26.4389 110.844 20.3557 110.568C14.2725 110.291 9.01895 109.738 7.35966 108.908C5.70038 108.079 5.14813 106.419 5.14813 106.419C5.14813 106.419 4.04109 106.419 3.48884 105.59C2.93575 104.761 2.38179 103.655 2.38179 103.655C2.38179 103.655 0.999915 103.655 0.999915 102.549C0.999915 101.442 5.14813 99.7839 5.14813 99.7839C5.14813 99.7839 0.446796 98.1246 2.38179 97.5715C4.31762 97.0184 20.6331 96.7419 20.6331 96.7419C20.6331 96.7419 21.1854 95.3592 18.9738 94.8061C16.7606 94.253 13.1663 91.7649 14.8256 91.4875L16.4849 91.2118C16.4849 91.2118 19.2504 92.5945 21.4619 92.8702C23.6735 93.1468 25.0562 93.9764 26.1632 94.8061C27.2686 95.6357 33.0753 101.442 33.0753 101.442C33.0753 101.442 40.2646 103.378 51.6023 103.655C62.939 103.931 66.8099 103.655 73.9993 105.037C81.1887 106.419 88.6546 108.079 88.6546 108.079L108.287 109.185C108.287 109.185 116.029 108.908 117.965 108.355C119.899 107.802 123.772 106.696 128.748 101.719C133.726 96.7419 140.639 91.7649 140.639 91.7649L142.574 90.6587Z" stroke="#393939" stroke-miterlimit="10" stroke-linecap="round" stroke-linejoin="round"/>
<path d="M5.1479 99.784L12.613 100.061" stroke="#393939" stroke-miterlimit="10" stroke-linecap="round" stroke-linejoin="round"/>
<path d="M2.38231 103.653L12.8903 103.1" stroke="#393939" stroke-miterlimit="10" stroke-linecap="round" stroke-linejoin="round"/>
<path d="M5.14812 106.419L11.7844 106.695" stroke="#393939" stroke-miterlimit="10" stroke-linecap="round" stroke-linejoin="round"/>
<path d="M12.6133 98.9529L11.7845 107.801" stroke="#393939" stroke-miterlimit="10" stroke-linecap="round" stroke-linejoin="round"/>
<path d="M20.3559 98.6771C20.3559 98.6771 20.3559 99.7833 20.9082 101.719C21.4621 103.654 27.5453 103.931 27.5453 103.931" stroke="#393939" stroke-miterlimit="10" stroke-linecap="round" stroke-linejoin="round"/>
<path d="M89.7607 121.074L74.2757 116.926" stroke="#393939" stroke-miterlimit="10" stroke-linecap="round" stroke-linejoin="round"/>
<path d="M129.181 123.481L126.813 118.586" stroke="#393939" stroke-miterlimit="10" stroke-linecap="round" stroke-linejoin="round"/>
<path d="M173.544 94.2517L168.29 97.5703" stroke="#393939" stroke-miterlimit="10" stroke-linecap="round" stroke-linejoin="round"/>
<path d="M168.843 92.0409L167.737 99.5069" stroke="#393939" stroke-miterlimit="10" stroke-linecap="round" stroke-linejoin="round"/>
<path d="M137.874 109.185C137.874 109.185 136.214 105.037 134.002 100.337C131.79 95.6354 128.748 95.912 127.642 96.4651C126.537 97.0181 122.389 98.4009 121.282 97.2947C120.176 96.1885 114.646 87.3398 114.646 87.3398C114.646 87.3398 111.881 87.3398 111.052 85.9579L113.263 80.1504C113.263 80.1504 111.604 78.492 111.604 76.8327V72.4088C111.604 72.4088 110.499 66.3256 110.499 64.9428C110.499 63.5601 116.029 61.9008 121.559 64.3897C127.089 66.8786 142.574 73.2384 144.233 77.1092C145.892 80.9801 146.446 89.5522 146.446 89.5522C146.446 89.5522 147.275 93.1473 148.934 98.4009" fill="white"/>
<path d="M137.874 109.185C137.874 109.185 136.214 105.037 134.002 100.337C131.79 95.6354 128.748 95.912 127.642 96.4651C126.537 97.0181 122.389 98.4009 121.282 97.2947C120.176 96.1885 114.646 87.3398 114.646 87.3398C114.646 87.3398 111.881 87.3398 111.052 85.9579L113.263 80.1504C113.263 80.1504 111.604 78.492 111.604 76.8327V72.4088C111.604 72.4088 110.499 66.3256 110.499 64.9428C110.499 63.5601 116.029 61.9008 121.559 64.3897C127.089 66.8786 142.574 73.2384 144.233 77.1092C145.892 80.9801 146.446 89.5522 146.446 89.5522C146.446 89.5522 147.275 93.1473 148.934 98.4009" stroke="#393939" stroke-miterlimit="10" stroke-linecap="round" stroke-linejoin="round"/>
<path d="M133.727 79.5974C133.727 79.5974 134.555 72.6846 138.15 74.3438C141.745 76.0031 141.192 81.2567 140.086 82.916C138.98 84.5744 137.044 84.2987 140.639 86.5103C144.234 88.7226 147.552 90.1045 150.04 86.5103C152.528 82.916 156.953 75.45 151.7 66.6013C146.446 57.7527 134.833 50.5633 124.878 51.3929C114.924 52.2225 115.2 56.0934 115.2 56.0934C115.2 56.0934 108.287 51.6703 103.586 59.1354C98.8857 66.6013 100.822 70.7496 102.757 70.7496C104.692 70.7496 105.522 68.5372 105.522 68.5372C105.522 68.5372 106.905 71.3018 108.287 71.8549C109.67 72.408 111.605 72.408 111.605 72.408L112.435 66.8779C112.435 66.8779 120.73 65.4952 121.836 68.8137C122.942 72.1315 123.495 76.2797 126.814 77.939C130.131 79.5974 133.727 79.5974 133.727 79.5974Z" fill="#393939"/>
<path d="M133.727 79.5974C133.727 79.5974 134.555 72.6846 138.15 74.3438C141.745 76.0031 141.192 81.2567 140.086 82.916C138.98 84.5744 137.044 84.2987 140.639 86.5103C144.234 88.7226 147.552 90.1045 150.04 86.5103C152.528 82.916 156.953 75.45 151.7 66.6013C146.446 57.7527 134.833 50.5633 124.878 51.3929C114.924 52.2225 115.2 56.0934 115.2 56.0934C115.2 56.0934 108.287 51.6703 103.586 59.1354C98.8857 66.6013 100.822 70.7496 102.757 70.7496C104.692 70.7496 105.522 68.5372 105.522 68.5372C105.522 68.5372 106.905 71.3018 108.287 71.8549C109.67 72.408 111.605 72.408 111.605 72.408L112.435 66.8779C112.435 66.8779 120.73 65.4952 121.836 68.8137C122.942 72.1315 123.495 76.2797 126.814 77.939C130.131 79.5974 133.727 79.5974 133.727 79.5974Z" stroke="#393939" stroke-miterlimit="10" stroke-linecap="round" stroke-linejoin="round"/>
<path d="M115.338 79.8748C115.338 80.7907 115.772 81.5332 116.306 81.5332C116.84 81.5332 117.274 80.7907 117.274 79.8748C117.274 78.9589 116.84 78.2155 116.306 78.2155C115.772 78.2155 115.338 78.9589 115.338 79.8748Z" fill="#393939"/>
<path d="M118.518 76.5566C118.518 76.5566 116.583 73.7912 113.817 76.5566" stroke="#393939" stroke-miterlimit="10" stroke-linecap="round" stroke-linejoin="round"/>
<path d="M122.112 87.6174C122.112 87.6174 121.283 90.1055 118.517 90.1055" stroke="#393939" stroke-miterlimit="10" stroke-linecap="round" stroke-linejoin="round"/>
<path d="M127.643 96.4642L134.556 90.1044L133.45 98.9531C133.45 98.9531 131.79 94.5284 127.643 96.4642Z" fill="#393939"/>
<path d="M127.643 96.4642L134.556 90.1044L133.45 98.9531C133.45 98.9531 131.79 94.5284 127.643 96.4642V96.4642Z" stroke="#393939" stroke-miterlimit="10" stroke-linecap="round" stroke-linejoin="round"/>
<path d="M183.775 120.245L186.263 119.968C186.263 119.968 192.07 113.885 200.641 111.673C209.214 109.461 222.21 112.502 222.21 112.502C222.21 112.502 236.589 104.483 245.989 98.3999C255.391 92.3167 265.622 86.7866 265.622 86.7866C265.622 86.7866 255.391 65.7715 253.732 54.7113C252.073 43.651 249.861 36.4616 248.478 33.9727C247.096 31.4838 245.713 28.7191 245.713 28.7191C245.713 28.7191 240.183 30.9315 238.248 28.9957C236.312 27.0598 237.142 20.147 236.865 17.9346C236.589 15.7231 236.035 9.63986 236.035 7.15091V3.55664C236.035 3.55664 234.376 0.514587 236.589 1.06769C238.8 1.62079 240.183 3.55664 241.289 5.21509C242.395 6.87436 247.372 17.9346 250.967 23.7421C254.562 29.5488 265.345 46.9688 272.258 59.1352C279.171 71.3016 283.871 86.7866 286.36 92.3167C288.849 97.8468 286.637 103.101 285.531 103.93C284.425 104.76 271.152 118.585 259.815 125.498C248.478 132.411 242.119 137.388 238.524 138.771C234.929 140.154 224.699 147.62 223.592 151.49C222.486 155.362 228.016 175.823 223.869 189.373C219.721 202.922 218.615 212.322 218.891 217.577C219.169 222.83 223.039 229.19 223.039 239.144C223.039 249.099 218.061 267.073 217.509 270.114C216.956 273.155 214.744 284.492 214.744 288.365C214.744 292.236 215.85 301.084 215.297 302.19C214.744 303.296 207.831 304.125 205.619 303.572C203.407 303.019 201.748 302.466 199.535 302.466C197.324 302.466 191.793 303.296 188.475 303.296C185.157 303.296 182.115 303.572 181.839 302.466C181.562 301.36 184.603 299.977 185.71 299.702C186.816 299.425 193.729 296.936 197.047 293.064C200.365 289.194 203.96 285.599 204.79 283.387C205.619 281.175 203.96 254.077 202.854 244.952C201.748 235.827 200.365 225.596 199.812 223.107C199.26 220.618 196.771 215.365 195.388 205.133C194.005 194.903 191.793 166.975 191.517 164.763C191.241 162.551 189.858 157.85 189.858 157.85C189.858 157.85 173.543 154.809 169.672 154.809C165.802 154.809 160.271 154.532 157.506 153.15C154.74 151.767 154.187 147.343 157.229 144.025C160.271 140.707 169.949 136.282 173.267 130.475C176.585 124.669 178.798 122.181 178.798 122.181L183.775 120.245Z" fill="white"/>
<path d="M183.775 120.245L186.263 119.968C186.263 119.968 192.07 113.885 200.641 111.673C209.214 109.461 222.21 112.502 222.21 112.502C222.21 112.502 236.589 104.483 245.989 98.3999C255.391 92.3167 265.622 86.7866 265.622 86.7866C265.622 86.7866 255.391 65.7715 253.732 54.7113C252.073 43.651 249.861 36.4616 248.478 33.9727C247.096 31.4838 245.713 28.7191 245.713 28.7191C245.713 28.7191 240.183 30.9315 238.248 28.9957C236.312 27.0598 237.142 20.147 236.865 17.9346C236.589 15.7231 236.035 9.63986 236.035 7.15092V3.55664C236.035 3.55664 234.376 0.514596 236.589 1.06769C238.8 1.62079 240.183 3.55664 241.289 5.21509C242.395 6.87437 247.372 17.9346 250.967 23.7421C254.562 29.5488 265.345 46.9688 272.258 59.1352C279.171 71.3016 283.871 86.7866 286.36 92.3167C288.849 97.8468 286.637 103.101 285.531 103.93C284.425 104.76 271.152 118.585 259.815 125.498C248.478 132.411 242.119 137.388 238.524 138.771C234.929 140.154 224.699 147.62 223.592 151.49C222.486 155.362 228.016 175.823 223.869 189.373C219.721 202.922 218.615 212.322 218.891 217.577C219.169 222.83 223.039 229.19 223.039 239.144C223.039 249.099 218.061 267.073 217.509 270.114C216.956 273.155 214.744 284.492 214.744 288.365C214.744 292.236 215.85 301.084 215.297 302.19C214.744 303.296 207.831 304.125 205.619 303.572C203.407 303.019 201.748 302.466 199.535 302.466C197.324 302.466 191.793 303.296 188.475 303.296C185.157 303.296 182.115 303.572 181.839 302.466C181.562 301.36 184.603 299.977 185.71 299.702C186.816 299.425 193.729 296.936 197.047 293.064C200.365 289.194 203.96 285.599 204.79 283.387C205.619 281.175 203.96 254.077 202.854 244.952C201.748 235.827 200.365 225.596 199.812 223.107C199.26 220.618 196.771 215.365 195.388 205.133C194.005 194.903 191.793 166.975 191.517 164.763C191.241 162.551 189.858 157.85 189.858 157.85C189.858 157.85 173.543 154.809 169.672 154.809C165.802 154.809 160.271 154.532 157.506 153.15C154.74 151.767 154.187 147.343 157.229 144.025C160.271 140.707 169.949 136.282 173.267 130.475C176.585 124.669 178.798 122.181 178.798 122.181L183.775 120.245Z" stroke="#393939" stroke-miterlimit="10" stroke-linecap="round" stroke-linejoin="round"/>
<path d="M185.332 120.071L186.263 119.967C186.263 119.967 192.069 113.885 200.642 111.672C209.214 109.46 222.209 112.502 222.209 112.502C222.209 112.502 236.588 104.483 245.99 98.3998C255.391 92.3166 265.622 86.7865 265.622 86.7865C265.622 86.7865 255.391 65.7714 253.732 54.7103C253.357 52.2112 252.953 49.9202 252.538 47.8254C256.35 45.0049 259.727 43.3727 262.414 42.4323C265.834 48.0994 269.381 54.0718 272.258 59.1351C279.171 71.3015 283.872 86.7865 286.36 92.3166C288.849 97.8467 286.637 103.1 285.531 103.93C284.425 104.76 271.152 118.585 259.815 125.498C248.478 132.411 242.119 137.388 238.524 138.77C234.929 140.153 224.698 147.619 223.592 151.489C222.486 155.362 228.016 175.823 223.868 189.372C219.721 202.921 218.615 212.322 218.891 217.577C219.168 222.83 223.039 229.189 223.039 239.144C223.039 249.098 218.062 267.072 217.508 270.114C217.429 270.553 217.314 271.169 217.176 271.906C211.515 273.057 207.524 272.4 204.77 271.188C204.358 262.077 203.509 250.358 202.854 244.951C201.748 235.826 200.365 225.595 199.812 223.107C199.259 220.618 196.77 215.364 195.388 205.133C194.005 194.902 191.793 166.974 191.516 164.763C191.24 162.551 189.858 157.85 189.858 157.85C189.858 157.85 187.582 157.426 184.53 156.894C192.08 142.837 187.547 126.333 185.332 120.071Z" fill="purple"/>
<path d="M185.332 120.071L186.263 119.967C186.263 119.967 192.069 113.885 200.642 111.672C209.214 109.46 222.209 112.502 222.209 112.502C222.209 112.502 236.588 104.483 245.99 98.3998C255.391 92.3166 265.622 86.7865 265.622 86.7865C265.622 86.7865 255.391 65.7714 253.732 54.7103C253.357 52.2112 252.953 49.9202 252.538 47.8254C256.35 45.0049 259.727 43.3727 262.414 42.4323C265.834 48.0994 269.381 54.0718 272.258 59.1351C279.171 71.3015 283.872 86.7865 286.36 92.3166C288.849 97.8467 286.637 103.1 285.531 103.93C284.425 104.76 271.152 118.585 259.815 125.498C248.478 132.411 242.119 137.388 238.524 138.77C234.929 140.153 224.698 147.619 223.592 151.489C222.486 155.362 228.016 175.823 223.868 189.372C219.721 202.921 218.615 212.322 218.891 217.577C219.168 222.83 223.039 229.189 223.039 239.144C223.039 249.098 218.062 267.072 217.508 270.114C217.429 270.553 217.314 271.169 217.176 271.906C211.515 273.057 207.524 272.4 204.77 271.188C204.358 262.077 203.509 250.358 202.854 244.951C201.748 235.826 200.365 225.595 199.812 223.107C199.259 220.618 196.77 215.364 195.388 205.133C194.005 194.902 191.793 166.974 191.516 164.763C191.24 162.551 189.858 157.85 189.858 157.85C189.858 157.85 187.582 157.426 184.53 156.894C192.08 142.837 187.547 126.333 185.332 120.071Z" stroke="#393939" stroke-miterlimit="10" stroke-linecap="round" stroke-linejoin="round"/>
<path d="M254.917 60.4105L267.939 53.0859M271.194 58.7828L257.359 66.9212" stroke="black" stroke-width="3"/>
<path d="M133.346 131.816C129.181 121.476 123.075 126.728 123.075 123.076C123.075 117.546 120.634 108.427 120.634 108.427L131.009 99.5706C131.277 99.327 131.545 99.0843 131.815 98.845C131.913 100.399 132.36 105.874 134.001 110.567C135.937 116.098 140.639 119.415 148.105 114.162C155.57 108.908 150.316 100.336 150.316 100.336C150.316 100.336 147.388 91.0619 147.493 87.1877C148.436 86.5314 149.45 85.8311 150.478 85.1301C153.187 83.2832 169.537 72.7255 172.719 77.5013C177.144 84.1376 174.785 89.7088 172.719 93.778C175.412 93.3526 173.366 109.077 174.785 108.41C174.914 109.232 175.053 109.969 175.203 110.567C176.308 114.99 177.967 118.586 180.456 119.415C182.944 120.245 183.774 120.245 183.774 120.245C183.774 120.245 185.433 136.559 179.903 145.407C174.373 154.255 162.207 153.98 158.888 153.98C155.57 153.98 148.105 144.025 148.105 144.025C148.105 144.025 140.362 140.983 137.32 138.218C135.582 136.637 134.208 133.886 133.346 131.816Z" fill="black"/>
<path d="M133.346 131.816C129.181 121.476 122.262 126.728 122.262 123.076C122.262 117.546 120.634 108.427 120.634 108.427L131.009 99.5706C131.277 99.327 131.545 99.0843 131.815 98.845C131.913 100.399 132.36 105.874 134.001 110.567C135.937 116.098 140.639 119.415 148.105 114.162C155.57 108.908 150.316 100.336 150.316 100.336C150.316 100.336 147.388 91.0619 147.493 87.1877C148.436 86.5314 149.45 85.8312 150.478 85.1301C150.478 83.1981 167.836 75.0598 172.719 76.6874C177.144 83.3237 175.975 89.7088 172.719 94.5919C175.412 94.1665 173.366 109.077 174.785 108.41C174.914 109.232 175.053 109.969 175.203 110.567C176.308 114.99 177.967 118.586 180.456 119.415C182.944 120.245 183.774 120.245 183.774 120.245C183.774 120.245 185.433 136.559 179.903 145.407C174.373 154.255 162.207 153.98 158.888 153.98C155.57 153.98 148.105 144.025 148.105 144.025C148.105 144.025 140.362 140.983 137.32 138.218C135.582 136.637 134.208 133.886 133.346 131.816Z" stroke="#393939" stroke-miterlimit="10" stroke-linecap="round" stroke-linejoin="round"/>
<path d="M172.161 121.351C172.161 121.351 171.885 129.094 164.142 130.753" stroke="#393939" stroke-miterlimit="10" stroke-linecap="round" stroke-linejoin="round"/>
<path d="M204.459 258.174H219.108" stroke="black" stroke-width="3"/>
<path d="M204.459 251.663H220.736" stroke="black" stroke-width="3"/>
<path d="M190.88 118.228C193.911 126.631 198.07 146.206 190.452 157.282" stroke="black" stroke-width="3"/>
</svg>
